<svg width="20" height="20" viewBox="0 0 20 20" fill="none" xmlns="http://www.w3.org/2000/svg">
<path d="M10.8334 9.79164C10.675 9.79164 10.5167 9.7333 10.3917 9.6083C10.15 9.36664 10.15 8.96664 10.3917 8.72497L17.225 1.89164C17.4667 1.64997 17.8667 1.64997 18.1084 1.89164C18.35 2.1333 18.35 2.5333 18.1084 2.77497L11.275 9.6083C11.15 9.7333 10.9917 9.79164 10.8334 9.79164Z" fill="white"/>
<path d="M18.3333 6.29169C17.9916 6.29169 17.7083 6.00835 17.7083 5.66669V2.29169H14.3333C13.9916 2.29169 13.7083 2.00835 13.7083 1.66669C13.7083 1.32502 13.9916 1.04169 14.3333 1.04169H18.3333C18.675 1.04169 18.9583 1.32502 18.9583 1.66669V5.66669C18.9583 6.00835 18.675 6.29169 18.3333 6.29169Z" fill="white"/>
<path d="M12.5 18.9584H7.50002C2.97502 18.9584 1.04169 17.025 1.04169 12.5V7.50002C1.04169 2.97502 2.97502 1.04169 7.50002 1.04169H9.16669C9.50835 1.04169 9.79169 1.32502 9.79169 1.66669C9.79169 2.00835 9.50835 2.29169 9.16669 2.29169H7.50002C3.65835 2.29169 2.29169 3.65835 2.29169 7.50002V12.5C2.29169 16.3417 3.65835 17.7084 7.50002 17.7084H12.5C16.3417 17.7084 17.7084 16.3417 17.7084 12.5V10.8334C17.7084 10.4917 17.9917 10.2084 18.3334 10.2084C18.675 10.2084 18.9584 10.4917 18.9584 10.8334V12.5C18.9584 17.025 17.025 18.9584 12.5 18.9584Z" fill="white"/>
</svg>
