<svg width="95" height="37" viewBox="0 0 95 37" fill="none" xmlns="http://www.w3.org/2000/svg">
<path d="M13.3641 20.3625C13.3379 18.8702 13.2856 17.3779 13.2595 15.8856C13.2595 15.6832 13.3118 15.5062 13.3118 15.3038C13.3379 14.5956 13.4948 13.8621 12.8411 13.1792C12.7103 13.1539 12.475 13.0527 12.2657 13.0527C11.612 13.0274 10.9582 13.0021 10.3044 13.0021C9.85988 12.9768 9.49377 13.1792 9.20611 13.4574C8.42159 14.1656 7.68937 14.8991 7.0879 15.7338C7.00945 15.835 6.93099 15.9109 6.82639 16.012C6.77409 15.9361 6.74794 15.9361 6.72179 15.8856C6.27723 15.0256 5.54501 14.368 4.91739 13.6092C4.65588 13.2804 4.31592 13.1033 3.84521 13.1539C3.79291 13.1792 3.71445 13.1539 3.636 13.1539C3.00838 13.1539 2.38076 13.1286 1.727 13.1286C1.30858 13.1286 1.02093 13.3562 0.890171 13.7103C0.759418 13.9886 0.654815 14.2668 0.628664 14.5703C0.524061 15.2532 0.47176 15.9614 0.419458 16.6697C0.341006 17.8584 0.288704 19.0472 0.236403 20.2107C0.157951 21.5007 0.00104603 22.7906 0.00104603 24.0806C0.00104603 26.7869 -0.0251047 29.4933 0.184101 32.1744C0.236403 32.8573 0.602513 33.3379 1.23013 33.5908C1.64854 33.7426 2.09311 33.8437 2.53767 33.8943C3.11299 33.9955 3.66215 33.7679 4.21132 33.5655C4.42052 33.4896 4.55128 33.3379 4.60358 33.1355C4.62973 32.9585 4.65588 32.7814 4.65588 32.6044C4.73433 31.3397 4.78663 30.0498 4.83894 28.7851C4.86509 27.8492 4.94354 26.9134 4.94354 25.9776C4.96969 24.3082 4.94354 22.6136 4.91739 20.9442C4.91739 20.6407 4.91739 20.3119 4.89124 20.0084C4.94354 19.9831 4.96969 19.9831 4.99584 19.9831C5.15274 20.236 5.30965 20.4889 5.4927 20.7419C5.64961 21.0201 5.83266 21.2983 6.04187 21.5512C6.43413 22.0318 6.9833 22.0065 7.37556 21.5259C7.74167 21.0707 8.10778 20.6154 8.50004 20.1601C8.55234 20.0842 8.60464 20.0589 8.70925 19.9578C8.65694 20.4383 8.60464 20.843 8.57849 21.2477C8.52619 22.7653 8.44774 24.2829 8.47389 25.8005C8.47389 27.4699 8.55234 29.1392 8.50004 30.7833C8.47389 32.3009 8.52619 33.7932 8.57849 35.3107C8.57849 35.5131 8.60464 35.7407 8.65694 35.9431C8.84 36.4489 9.36302 36.803 9.91218 36.9042C10.3567 37.0054 10.9582 37.056 11.4028 36.9042C11.7427 36.803 12.2134 36.6766 12.475 36.4489C12.8411 36.1454 12.8672 35.6143 12.9718 35.1843C13.1287 34.5772 13.1287 33.9196 13.1549 33.2873C13.2072 31.9973 13.1549 30.7074 13.2333 29.4174C13.2856 28.0516 13.4164 26.6858 13.4425 25.3199C13.4425 23.6759 13.3902 22.0318 13.3641 20.3625Z" fill="url(#paint0_linear)"/>
<path d="M22.9393 30.9603C22.9655 30.8086 22.9916 30.6568 23.0178 30.5303C23.3316 28.8357 23.2793 27.1663 23.3578 25.4717C23.3578 24.8394 23.4101 24.1817 23.4362 23.5241C23.4624 23.1447 23.4885 22.74 23.5147 22.3353C23.5147 21.5259 23.5147 20.6913 23.5147 19.8819C23.5408 19.5531 23.5931 19.199 23.567 18.8955C23.4885 18.339 23.3839 17.7826 23.2531 17.2514C23.1747 16.9479 23.0439 16.6697 22.9393 16.3661C22.8086 16.0879 22.5732 15.8856 22.2594 15.7844C21.8149 15.6832 21.3703 15.582 20.9257 15.5315C20.3766 15.4556 19.8274 15.4303 19.2782 15.3797C18.363 15.2785 17.4477 15.3291 16.5324 15.405C15.9832 15.4556 15.4602 15.6832 15.1726 16.1891C14.9634 16.5179 14.8065 16.8973 14.6496 17.2767C14.5711 17.4284 14.5449 17.6055 14.5188 17.7826C14.4926 18.3137 14.4665 18.8702 14.4403 19.4013C14.388 20.1601 14.3096 20.8936 14.2573 21.6524C14.1788 22.6136 14.0742 23.5747 14.0481 24.5611C13.9958 25.8258 13.9696 27.0905 13.9696 28.3551C13.9696 29.0886 13.9696 29.8221 14.1527 30.5303C14.3357 31.2385 14.7019 31.9215 15.3556 32.3261C15.9309 32.7055 16.6893 32.8067 17.3954 32.7561C18.1015 32.7308 18.8075 32.5791 19.5136 32.5285C20.1151 32.5032 20.7165 32.5032 21.318 32.402C22.2333 32.225 22.7301 31.8203 22.9393 30.9603ZM19.4874 19.9831C19.6966 20.4889 19.7228 21.0454 19.7489 21.5765C19.8012 22.5377 19.8536 23.4988 19.8797 24.46C19.9059 24.9658 19.8535 25.4717 19.8274 25.9776C19.8274 26.3317 19.8535 26.6858 19.8274 27.0652C19.8274 27.4446 19.8274 27.824 19.7751 28.2034C19.7489 28.4816 19.5659 28.608 19.3305 28.7092C19.1213 28.7851 18.9121 28.8357 18.7029 28.8863C18.3891 28.9369 17.9707 28.6586 17.9445 28.3298C17.8922 27.9251 17.8922 27.4951 17.9184 27.0905C17.9445 25.927 18.1015 24.7635 18.023 23.6C17.9707 23.1194 17.9445 22.6136 17.9445 22.133C17.9445 21.6018 17.9707 21.096 17.9968 20.5901C17.9968 20.0589 18.363 19.7048 18.9121 19.7301C19.1475 19.7301 19.3305 19.7807 19.4874 19.9831Z" fill="url(#paint1_linear)"/>
<path d="M29.9921 19.3507C30.0444 19.8819 30.1228 20.413 30.0182 20.9189C29.9659 21.2477 29.9921 21.5765 30.2536 21.8042C30.5412 22.0318 30.8812 22.1836 31.2735 22.1836C31.8226 22.1583 32.3456 21.9812 32.8425 21.7283C33.3917 21.4501 33.6793 20.9948 33.6532 20.3625C33.627 18.6172 34.15 16.3408 32.0318 15.5567C31.2735 15.2785 30.4628 15.2532 29.6521 15.2279C28.2138 15.2026 26.5663 14.9244 25.2588 15.6326C25.0234 15.7591 24.8665 15.9361 24.7619 16.1891C24.4481 17.0238 24.5004 18.0861 24.3958 18.9966C24.2912 20.1095 24.2128 21.2224 24.1605 22.3353C24.082 24.5105 24.1605 26.6858 24.422 28.861C24.5004 29.6704 24.605 30.4797 24.945 31.188C25.2849 31.9215 25.8864 32.5791 26.6971 32.832C27.1155 32.9585 27.5862 32.9585 28.0308 32.9585C29.6521 32.9838 31.4565 33.2114 32.9994 32.5538C33.3655 32.402 33.627 32.1491 33.8101 31.8203C34.0454 31.3903 34.0193 30.9603 33.9931 30.505C33.9931 30.0751 33.967 29.6198 33.9931 29.1898C34.0193 28.6333 33.9931 28.0769 33.8885 27.5204C33.7578 26.8122 33.2871 26.3569 32.581 26.2305C31.9272 26.104 31.3258 26.2305 30.7504 26.534C30.4889 26.6605 30.3843 26.8881 30.4105 27.1663C30.4105 27.6216 30.4105 28.0516 30.4105 28.4816C30.4105 28.6839 30.3582 28.861 30.2013 28.9874C29.9136 28.9874 29.5998 28.9874 29.3122 28.9874C28.8414 28.9622 28.5538 28.7092 28.5015 28.2539C28.4753 27.8998 28.4753 27.571 28.4753 27.2169C28.4492 26.4075 28.4753 25.5729 28.423 24.7635C28.3969 24.1564 28.2661 23.5494 28.24 22.9424C28.1877 22.0571 28.1615 21.1718 28.1354 20.2866C28.1354 20.0336 28.1877 19.806 28.3184 19.5784C28.8414 19.3254 29.3906 19.3254 29.9921 19.3507Z" fill="url(#paint2_linear)"/>
<path d="M38.6065 15.582C38.3973 15.5315 38.1881 15.4556 37.9789 15.4303C37.4036 15.405 36.8021 15.3797 36.2268 15.3797C35.8868 15.3544 35.6253 15.5567 35.4946 15.835C35.39 16.0879 35.2854 16.3408 35.2592 16.6191C35.1546 17.1755 35.1023 17.732 35.05 18.2884C34.9715 19.4266 34.9454 20.5395 34.8146 21.6524C34.71 22.6136 34.6316 23.5747 34.6054 24.5358C34.5531 26.8375 34.5008 29.1139 34.6577 31.3903C34.6839 31.9467 34.9454 32.3261 35.4423 32.5791C35.9391 32.832 36.4621 32.8826 36.9852 32.832C37.2728 32.8067 37.5343 32.7561 37.7958 32.7308C38.1358 32.6803 38.3711 32.5032 38.4757 32.1744C38.5019 32.0732 38.528 31.9467 38.528 31.8456C38.5542 31.365 38.6065 30.8844 38.6065 30.4039C38.6065 29.3921 38.3973 28.1781 38.6065 27.1916C38.9203 27.2928 39.0772 27.824 39.2341 28.1022C39.4695 28.5575 39.7048 28.9874 39.914 29.4174C40.3848 30.3027 40.8555 31.188 41.3262 32.0732C41.4308 32.2756 41.5615 32.5032 41.7446 32.6803C42.1107 32.9585 42.6076 32.9585 43.0521 32.9585C43.7059 32.9332 44.3335 32.9079 44.9611 32.8573C45.0919 32.832 45.1965 32.832 45.3011 32.7814C45.4318 32.7055 45.5103 32.5791 45.5626 32.4526C45.798 31.8962 45.5103 31.2385 45.1965 30.7074C44.6996 29.7715 44.1243 28.8357 43.7059 27.8492C43.4444 27.3181 43.1829 26.7616 42.8952 26.2305C42.7383 25.9776 42.5553 25.7499 42.3984 25.497C41.9276 24.7129 41.4831 23.9288 41.0124 23.0941C41.1954 22.8665 41.3785 22.6136 41.6138 22.3606C42.1107 21.8295 42.5291 21.2224 42.9214 20.5901C43.1567 20.1854 43.4444 19.806 43.7582 19.4266C44.072 19.0725 44.3597 18.6678 44.6212 18.2378C44.935 17.7067 45.3011 17.2008 45.6411 16.6949C45.7195 16.5685 45.798 16.442 45.8764 16.3155C46.0595 15.8856 45.8503 15.5062 45.3795 15.4556C44.7781 15.3797 44.1766 15.3291 43.549 15.3797C43.3136 15.405 43.0783 15.4303 42.8691 15.4303C42.2938 15.3797 41.9276 15.6326 41.6661 16.0879C41.5354 16.3155 41.3785 16.4926 41.2216 16.6949C40.9601 17.0743 40.6463 17.4284 40.3586 17.8078C40.2017 18.0102 40.0186 18.2378 39.8617 18.4655C39.5741 18.8196 39.2864 19.1737 38.9988 19.5278C38.8419 19.7301 38.685 19.9325 38.528 20.1348C38.5019 20.1095 38.4757 20.0842 38.4757 20.0589C38.4757 19.7048 38.4496 19.3254 38.6065 18.9713C38.6588 18.8702 38.6588 18.769 38.6588 18.6425C38.685 17.7826 38.685 16.8973 38.685 16.0373C38.685 15.9109 38.6327 15.7591 38.6065 15.582Z" fill="url(#paint3_linear)"/>
<path d="M54.9146 16.265C54.7577 16.1385 54.6008 16.0373 54.4438 15.9109C54.0254 15.582 53.5286 15.3797 53.0056 15.3038C51.515 15.1015 50.0505 15.0509 48.5599 15.0762C48.1154 15.0762 47.6708 15.1521 47.2785 15.3544C47.0955 15.4303 46.9386 15.5567 46.8601 15.7338C46.7555 15.9361 46.6771 16.1385 46.6248 16.3408C46.5463 16.7708 46.4679 17.2261 46.4417 17.6561C46.3633 18.3643 46.3633 19.0472 46.311 19.7554C46.311 20.0589 46.2848 20.3372 46.2587 20.6407C46.1018 22.0824 45.9187 23.5241 45.9187 24.9658C45.9187 27.0905 45.8141 29.2404 45.9972 31.3903C46.0233 31.6938 46.0756 31.9973 46.1279 32.3009C46.1802 32.655 46.4156 32.8573 46.7817 32.9838C47.5139 33.262 48.2461 33.1861 48.9522 33.0091C49.3444 32.9079 49.5798 32.6803 49.6321 32.2756C49.6844 31.8203 49.7367 31.365 49.7629 30.9097C49.789 30.1256 49.7629 29.3415 49.7629 28.5828C49.7629 28.3045 49.789 28.0263 49.789 27.7481C49.8152 27.2169 49.8413 26.6605 49.8675 26.1293C49.8675 26.0534 49.8936 25.9776 49.8936 25.8764C50.0244 25.8511 50.129 25.8511 50.2336 25.8258C50.6258 25.8258 51.0442 25.8258 51.4365 25.8005C52.0118 25.7752 52.5871 25.7246 53.1363 25.6487C54.0777 25.497 54.7577 24.7129 54.8884 23.8023C54.9407 23.3218 55.0453 22.8412 55.0976 22.3353C55.1761 21.5512 55.2545 20.7419 55.2807 19.9578C55.333 18.9966 55.2807 18.0608 55.1761 17.0996C55.1499 16.7961 55.0976 16.5179 54.9146 16.265ZM52.4041 19.8566C52.3518 20.3878 52.3256 20.9442 52.2472 21.4754C52.1687 22.0571 51.9072 22.3353 51.3058 22.4112C50.9658 22.4618 50.6258 22.4871 50.2859 22.4618C49.8675 22.4365 49.6583 22.1836 49.7106 21.7789C49.7367 21.3489 49.7367 20.9442 49.789 20.5142C49.8152 20.1348 49.8413 19.7554 49.8936 19.376C49.8936 19.1737 49.9198 18.9713 49.9459 18.769C49.9721 18.4908 50.129 18.3137 50.3905 18.339C50.8873 18.3643 51.4104 18.3896 51.9334 18.4908C52.2995 18.5413 52.3779 18.6931 52.3779 19.0472C52.3779 19.3001 52.3779 19.5784 52.3779 19.8566H52.4041Z" fill="url(#paint4_linear)"/>
<path d="M62.4946 25.6993C62.4946 25.6487 62.4684 25.6234 62.4684 25.5729C62.4423 25.4717 62.39 25.3705 62.4684 25.2946C62.5207 25.244 62.5731 25.244 62.6515 25.2188C62.913 25.1935 63.1745 25.1429 63.436 25.067C64.0113 24.8394 64.4297 24.3082 64.6128 23.7517C64.822 23.17 64.8482 22.563 64.8743 21.9559C64.9266 21.096 64.9266 20.2613 64.9789 19.4013C65.0574 18.339 65.345 16.8973 64.6651 15.9614C64.1944 15.3291 63.3314 15.1268 62.5469 15.1015C61.0302 15.0509 59.5396 15.1015 58.0228 15.1015C57.6306 15.0762 57.2644 15.1774 56.8983 15.3544C56.6891 15.4556 56.5322 15.6326 56.4276 15.8603C56.2184 16.2903 56.1661 16.7455 56.14 17.2261C56.1138 18.2125 56.0877 19.199 56.0354 20.1854C56.0354 20.2613 56.0354 20.3372 56.0354 20.4383C55.9831 21.5007 55.9308 22.5883 56.0354 23.6759C56.0354 23.9035 56.0354 24.1311 56.0092 24.3335C55.9569 24.8899 55.9046 25.4464 55.8523 26.0028C55.8262 26.4075 55.8523 26.8122 55.8785 27.2169C55.8785 27.9757 55.9308 28.7345 55.9308 29.4933C55.9308 30.4292 55.8785 31.3397 55.8523 32.2503C55.8523 32.7055 55.9569 32.832 56.3753 33.0091C57.1075 33.2873 57.8398 33.2114 58.572 33.0344C58.9642 32.9332 59.1735 32.6803 59.2519 32.2756C59.435 31.2638 59.4088 30.2268 59.3565 29.2151C59.3565 28.7598 59.435 28.3045 59.4611 27.8492C59.8534 28.5322 60.0887 29.3163 60.4287 30.0245C60.7687 30.8338 61.1348 31.6179 61.5009 32.402C61.6055 32.6297 61.7101 32.8573 61.9193 33.0091C62.1808 33.2114 62.5469 33.2367 62.8607 33.2367C63.4883 33.262 64.5605 33.3379 64.9266 32.7561C65.1881 32.3514 64.9528 31.795 64.7436 31.365C63.8544 29.5186 63.1484 27.6216 62.4946 25.6993ZM60.9779 21.5765C60.4548 21.6271 59.958 21.8801 59.435 21.8042C59.2257 21.2477 59.2781 19.3507 59.5396 18.6172C59.7749 18.4655 60.0364 18.5413 60.2979 18.5666C60.5594 18.6172 60.8209 18.6931 61.1086 18.7437C61.3178 18.769 61.4224 18.8702 61.4224 19.0725C61.4486 19.2496 61.4486 19.4519 61.4486 19.629C61.4486 20.0084 61.4224 20.3625 61.4224 20.7166C61.3963 21.0707 61.344 21.3742 60.9779 21.5765Z" fill="url(#paint5_linear)"/>
<path d="M74.9424 20.7166C74.9424 20.6407 74.9685 20.5648 74.9685 20.4889C74.9685 19.6542 74.9685 18.7943 74.9947 17.9596C74.9947 17.7826 74.9947 17.6308 75.0208 17.4537C75.0731 17.1755 75.1254 16.872 75.0208 16.5938C74.9162 16.3661 74.8116 16.1132 74.707 15.8856C74.5501 15.5062 74.2363 15.3038 73.8179 15.2532C73.4779 15.2026 73.1118 15.1521 72.7457 15.1521C71.4382 15.1521 70.0522 15.0509 68.7708 15.3291C68.0909 15.4809 67.4109 15.7591 66.9141 16.265C65.6065 17.5549 65.8942 19.4266 65.8157 21.0454C65.7634 21.9053 65.685 22.7653 65.6588 23.6253C65.6327 24.7888 65.6327 25.927 65.6588 27.0652C65.685 28.1781 65.5804 29.3163 65.8419 30.4039C65.9726 31.0615 66.1557 31.7444 66.6787 32.1997C67.1233 32.5791 67.7248 32.7055 68.3262 32.7814C69.3984 32.9332 70.4706 32.9585 71.5689 32.8573C72.5103 32.7814 73.7394 32.7561 74.5239 32.1744C74.8639 31.9215 75.047 31.5926 75.0993 31.188C75.1516 30.6821 75.1516 30.1762 75.1516 29.6704C75.1516 29.1898 75.0993 28.7345 75.047 28.2792C75.047 28.1275 74.9947 27.9504 74.8901 27.7987C74.7331 27.571 74.5239 27.3434 74.2101 27.3687C73.4779 27.3687 72.7457 27.3687 72.0396 27.5457C71.8043 27.5963 71.6474 27.6722 71.5951 27.7734C71.4382 28.2792 71.5951 28.7345 71.3074 29.1139C71.0197 29.0886 70.7582 29.0886 70.4967 29.0886C70.4706 29.0886 70.4183 29.0886 70.3921 29.0886C69.8953 29.038 69.6338 28.7598 69.6076 28.3045C69.6076 27.6216 69.6076 26.9387 69.6076 26.2558C69.6076 26.2052 69.6338 26.1546 69.6599 26.104C69.8691 26.0534 70.0783 26.0281 70.2875 26.0028C70.6013 26.0028 70.9151 26.0028 71.2551 25.9776C71.4643 25.9523 71.6997 25.927 71.935 25.8511C72.2488 25.7752 72.458 25.5476 72.5103 25.2188C72.5365 24.9405 72.5626 24.6623 72.5626 24.3841C72.5365 23.9035 72.458 23.4229 72.4319 22.9424C72.4319 22.3859 71.9612 21.8548 71.2289 21.9053C70.7582 21.9306 70.2875 21.9306 69.8168 21.9559C69.6861 21.9559 69.5815 21.9559 69.4507 21.9559C69.4507 21.3489 69.4507 20.7671 69.4507 20.1854C69.4768 20.0084 69.5553 19.8566 69.6076 19.6795C70.1829 19.4266 70.7321 19.4266 71.3074 19.4772C71.3859 19.8566 71.4382 20.1854 71.4905 20.5395C71.5166 20.9442 71.6997 21.2224 72.0658 21.3995C72.5888 21.3742 73.0857 21.3742 73.5825 21.3489C73.7656 21.3236 73.9486 21.2224 74.1578 21.1971C74.4978 21.1465 74.7332 20.9695 74.9424 20.7166Z" fill="url(#paint6_linear)"/>
<path d="M81.6576 21.5259C81.8668 21.5512 82.076 21.6018 82.2852 21.6018C82.9128 21.6524 83.5143 21.5512 84.1419 21.5007C84.3773 21.4754 84.6126 21.3995 84.8218 21.2983C84.9526 20.9695 84.9787 20.666 84.9787 20.3372C85.0049 19.9325 85.031 19.5025 85.0572 19.0978C85.0572 19.0219 85.0572 18.9713 85.0572 18.8955C85.0572 18.2884 85.0572 17.6814 85.0572 17.0743C85.0833 16.6949 85.0572 16.3155 84.8741 15.9614C84.6911 15.582 84.4034 15.3544 84.0111 15.3038C83.645 15.2279 83.2789 15.1521 82.8867 15.1521C81.3699 15.1774 79.8532 15.0509 78.3103 15.1521C77.8134 15.1774 77.3427 15.2532 76.872 15.4556C76.6889 15.5567 76.5059 15.6579 76.4274 15.8603C76.3228 16.0626 76.2182 16.2397 76.1921 16.4673C76.0352 17.2767 75.8783 18.1114 75.9829 18.946C75.9829 19.0219 75.9829 19.1231 75.9829 19.199C75.8783 20.1095 75.8783 21.0201 76.0613 21.9306C76.0875 22.0824 76.1136 22.2089 76.1136 22.3606C76.0613 22.6894 76.2182 22.9677 76.4536 23.1953C76.7412 23.4482 77.0289 23.7265 77.3427 23.9541C77.8396 24.3335 78.3626 24.6623 78.8595 25.0164C79.121 25.2188 79.3563 25.4211 79.5917 25.6487C79.8009 25.8511 80.0101 26.0787 80.2193 26.2811C80.5331 26.5846 80.8208 26.8628 81.1084 27.1157C81.1084 27.2422 81.1346 27.3434 81.1346 27.4193C81.1346 27.6975 81.1346 27.9757 81.1346 28.2539C81.1084 28.6839 80.8469 28.9369 80.4285 29.0127C80.1147 29.038 79.7747 29.038 79.4348 29.0633C79.3563 28.9116 79.2779 28.7851 79.2779 28.6333C79.2256 28.2034 79.1994 27.7481 79.1733 27.3181C79.1733 26.9134 79.0164 26.7111 78.6241 26.5846C78.2057 26.4075 77.7611 26.3569 77.2904 26.3822C76.5059 26.4328 75.8521 26.964 75.7475 27.6975C75.7214 27.9504 75.6952 28.2286 75.6952 28.4816C75.6952 29.5439 75.6691 30.5809 75.7737 31.6432C75.7998 32.0226 76.009 32.3009 76.2444 32.5538C76.3228 32.6297 76.4274 32.6803 76.532 32.7055C76.872 32.7814 77.2381 32.8067 77.5781 32.8573C77.8396 32.8826 78.1272 32.9079 78.4149 32.9332C78.9118 32.9585 79.4348 33.0344 79.9578 33.0344C80.35 33.0597 80.7685 33.0091 81.1869 32.9838C81.8145 32.9585 82.4421 32.9585 83.0697 32.9332C83.5404 32.9079 84.0111 32.7814 84.4034 32.5032C84.5603 32.3514 84.6911 32.1997 84.7172 31.9973C84.7695 31.5674 84.848 31.1374 84.8741 30.7074C84.9003 29.7462 84.9264 28.7851 84.9003 27.7987C84.9003 26.964 84.8218 26.1293 84.6126 25.2946C84.5865 25.1935 84.5342 25.0923 84.4819 24.9911C84.0634 24.5105 83.6973 24.0047 83.1482 23.6759C82.2329 23.0941 81.3961 22.4365 80.5854 21.7536C80.167 21.3995 79.8009 21.0201 79.4348 20.6407C79.4609 20.2613 79.4609 19.9072 79.6963 19.5784C80.2454 19.3507 80.7946 19.4013 81.3699 19.4519C81.4484 20.1348 81.3438 20.8177 81.6576 21.5259Z" fill="url(#paint7_linear)"/>
<path d="M91.5918 21.5259C91.801 21.5512 92.0102 21.6018 92.2194 21.6018C92.847 21.6524 93.4485 21.5512 94.0761 21.5007C94.3115 21.4754 94.5468 21.3995 94.7561 21.2983C94.8868 20.9695 94.9129 20.666 94.9129 20.3372C94.9391 19.9325 94.9653 19.5025 94.9914 19.0978C94.9914 19.0219 94.9914 18.9713 94.9914 18.8955C94.9914 18.2884 94.9914 17.6814 94.9914 17.0743C95.0176 16.6949 94.9914 16.3155 94.8083 15.9614C94.6253 15.582 94.3376 15.3544 93.9454 15.3038C93.5793 15.2279 93.2132 15.1521 92.8209 15.1521C91.3041 15.1774 89.7874 15.0509 88.2445 15.1521C87.7476 15.1774 87.2769 15.2532 86.8062 15.4556C86.6232 15.5567 86.4401 15.6579 86.3616 15.8603C86.257 16.0626 86.1524 16.2397 86.1263 16.4673C85.9694 17.2767 85.8125 18.1114 85.9171 18.946C85.9171 19.0219 85.9171 19.1231 85.9171 19.199C85.8125 20.1095 85.8125 21.0201 85.9955 21.9306C86.0217 22.0824 86.0478 22.2089 86.0478 22.3606C85.9955 22.6894 86.1524 22.9677 86.3878 23.1953C86.6755 23.4482 86.9631 23.7265 87.2769 23.9541C87.7738 24.3335 88.2968 24.6623 88.7937 25.0164C89.0552 25.2188 89.2905 25.4211 89.5259 25.6487C89.7351 25.8511 89.9443 26.0787 90.1535 26.2811C90.4673 26.5846 90.755 26.8628 91.0426 27.1157C91.0426 27.2422 91.0688 27.3434 91.0688 27.4193C91.0688 27.6975 91.0688 27.9757 91.0688 28.2539C91.0426 28.6839 90.7811 28.9369 90.3627 29.0127C90.0489 29.038 89.7089 29.038 89.369 29.0633C89.2905 28.9116 89.2121 28.7851 89.2121 28.6333C89.1598 28.2034 89.1336 27.7481 89.1075 27.3181C89.1075 26.9134 88.9506 26.7111 88.5583 26.5846C88.1399 26.4075 87.6953 26.3569 87.2246 26.3822C86.4401 26.4328 85.7863 26.964 85.6817 27.6975C85.6556 27.9504 85.6294 28.2286 85.6294 28.4816C85.6294 29.5439 85.6033 30.5809 85.7079 31.6432C85.734 32.0226 85.9432 32.3009 86.1786 32.5538C86.257 32.6297 86.3617 32.6803 86.4663 32.7055C86.8062 32.7814 87.1723 32.8067 87.5123 32.8573C87.7738 32.8826 88.0615 32.9079 88.3491 32.9332C88.846 32.9585 89.369 33.0344 89.892 33.0344C90.2843 33.0597 90.7027 33.0091 91.1211 32.9838C91.7487 32.9585 92.3763 32.9585 93.004 32.9332C93.4747 32.9079 93.9454 32.7814 94.3376 32.5032C94.4945 32.3514 94.6253 32.1997 94.6514 31.9973C94.7037 31.5674 94.7822 31.1374 94.8083 30.7074C94.8345 29.7462 94.8606 28.7851 94.8345 27.7987C94.8345 26.964 94.7561 26.1293 94.5468 25.2946C94.5207 25.1935 94.4684 25.0923 94.4161 24.9911C93.9977 24.5105 93.6316 24.0047 93.0824 23.6759C92.1671 23.0941 91.3303 22.4365 90.5196 21.7536C90.1012 21.3995 89.7351 21.0201 89.369 20.6407C89.3951 20.2613 89.3951 19.9072 89.6305 19.5784C90.1797 19.3507 90.7288 19.4013 91.3042 19.4519C91.3826 20.1348 91.278 20.8177 91.5918 21.5259Z" fill="url(#paint8_linear)"/>
<g opacity="0.6">
<path d="M1 7.5H2.31767V4.88021H4.25317C4.32607 4.88021 4.42267 4.87674 4.54295 4.86979C4.66688 4.86285 4.77988 4.85243 4.88194 4.83854C5.55991 4.73785 6.06292 4.46875 6.39097 4.03125C6.72267 3.59028 6.88851 3.06076 6.88851 2.44271C6.88851 1.82118 6.72449 1.29167 6.39644 0.854167C6.07203 0.413194 5.5672 0.142361 4.88194 0.0416667C4.77988 0.0243057 4.6687 0.0138889 4.54842 0.0104165C4.42813 0.00347218 4.32972 0 4.25317 0H1V7.5ZM2.31767 3.70833V1.17708H4.1985C4.2714 1.17708 4.35341 1.18056 4.44454 1.1875C4.53566 1.19444 4.6195 1.2066 4.69604 1.22396C4.91474 1.27604 5.08606 1.36979 5.20999 1.50521C5.33756 1.63715 5.42687 1.78646 5.4779 1.95312C5.53257 2.11979 5.55991 2.28299 5.55991 2.44271C5.55991 2.60243 5.53257 2.76562 5.4779 2.93229C5.42687 3.09896 5.33756 3.24826 5.20999 3.38021C5.08606 3.51215 4.91474 3.60417 4.69604 3.65625C4.6195 3.67708 4.53566 3.69097 4.44454 3.69792C4.35341 3.70486 4.2714 3.70833 4.1985 3.70833H2.31767Z" fill="#1B2733"/>
<path d="M10.4958 7.65625C11.0863 7.65625 11.6021 7.53125 12.0431 7.28125C12.4841 7.02778 12.8268 6.67882 13.071 6.23437C13.3189 5.78646 13.4428 5.27083 13.4428 4.6875C13.4428 4.10764 13.3207 3.59549 13.0765 3.15104C12.8322 2.70312 12.4896 2.35243 12.0486 2.09896C11.6075 1.84549 11.0899 1.71875 10.4958 1.71875C9.91624 1.71875 9.40594 1.84375 8.96489 2.09375C8.52384 2.34375 8.17939 2.69097 7.93153 3.13542C7.68367 3.57986 7.55974 4.09722 7.55974 4.6875C7.55974 5.26736 7.68002 5.78125 7.92059 6.22917C8.16481 6.67361 8.50744 7.02257 8.94849 7.27604C9.38953 7.52951 9.9053 7.65625 10.4958 7.65625ZM10.4958 6.47917C9.98914 6.47917 9.60459 6.31771 9.34215 5.99479C9.08335 5.6684 8.95395 5.23264 8.95395 4.6875C8.95395 4.15625 9.07788 3.72569 9.32574 3.39583C9.57725 3.0625 9.96727 2.89583 10.4958 2.89583C11.0134 2.89583 11.4016 3.05903 11.6604 3.38542C11.9192 3.70833 12.0486 4.14236 12.0486 4.6875C12.0486 5.21528 11.9192 5.64583 11.6604 5.97917C11.4052 6.3125 11.017 6.47917 10.4958 6.47917Z" fill="#1B2733"/>
<path d="M15.6914 7.5H16.7193L18.0534 3.63021L19.3929 7.5H20.4208L22.2251 1.875H20.9347L19.7756 5.48437L18.611 1.875H17.5011L16.3311 5.48437L15.1774 1.875L13.8871 1.86458L15.6914 7.5Z" fill="#1B2733"/>
<path d="M25.6828 7.65625C26.2514 7.65625 26.7708 7.51736 27.241 7.23958C27.7148 6.95833 28.0648 6.5625 28.2908 6.05208L26.9895 5.67708C26.7271 6.21181 26.266 6.47917 25.6062 6.47917C25.1579 6.47917 24.8043 6.3559 24.5455 6.10938C24.2867 5.85938 24.1318 5.50174 24.0808 5.03646H28.3564C28.4074 4.35937 28.329 3.77257 28.1213 3.27604C27.9135 2.77951 27.5946 2.39583 27.1645 2.125C26.738 1.85417 26.2186 1.71875 25.6062 1.71875C25.0267 1.71875 24.5164 1.84375 24.0753 2.09375C23.6343 2.34028 23.2898 2.69097 23.0419 3.14583C22.7941 3.60069 22.6702 4.13542 22.6702 4.75C22.6702 5.31944 22.7959 5.82292 23.0474 6.26042C23.3026 6.69792 23.6561 7.03993 24.1081 7.28646C24.5601 7.53299 25.085 7.65625 25.6828 7.65625ZM25.6609 2.81771C26.0691 2.81771 26.3826 2.92014 26.6013 3.125C26.8236 3.32639 26.964 3.64757 27.0223 4.08854H24.1136C24.2703 3.24132 24.7861 2.81771 25.6609 2.81771Z" fill="#1B2733"/>
<path d="M29.5763 7.5H30.8995V4.64062C30.8995 4.31424 30.9614 4.02431 31.0853 3.77083C31.2129 3.51736 31.4116 3.32118 31.6813 3.18229C31.8636 3.0816 32.0677 3.02257 32.2937 3.00521C32.5197 2.98438 32.722 2.99826 32.9006 3.04688V1.875C32.6345 1.83681 32.3611 1.84201 32.0804 1.89063C31.7998 1.93576 31.5501 2.02951 31.3314 2.17188C31.2075 2.24479 31.0963 2.33333 30.9979 2.4375C30.8995 2.53819 30.8138 2.65104 30.7409 2.77604V1.875H29.5763V7.5Z" fill="#1B2733"/>
<path d="M36.5217 7.65625C37.0903 7.65625 37.6097 7.51736 38.0799 7.23958C38.5538 6.95833 38.9037 6.5625 39.1297 6.05208L37.8284 5.67708C37.566 6.21181 37.1049 6.47917 36.4451 6.47917C35.9968 6.47917 35.6432 6.3559 35.3844 6.10938C35.1256 5.85938 34.9707 5.50174 34.9197 5.03646H39.1953C39.2463 4.35937 39.168 3.77257 38.9602 3.27604C38.7524 2.77951 38.4335 2.39583 38.0034 2.125C37.5769 1.85417 37.0575 1.71875 36.4451 1.71875C35.8656 1.71875 35.3553 1.84375 34.9142 2.09375C34.4732 2.34028 34.1287 2.69097 33.8809 3.14583C33.633 3.60069 33.5091 4.13542 33.5091 4.75C33.5091 5.31944 33.6348 5.82292 33.8863 6.26042C34.1415 6.69792 34.4951 7.03993 34.947 7.28646C35.399 7.53299 35.9239 7.65625 36.5217 7.65625ZM36.4998 2.81771C36.9081 2.81771 37.2215 2.92014 37.4402 3.125C37.6626 3.32639 37.8029 3.64757 37.8612 4.08854H34.9525C35.1092 3.24132 35.625 2.81771 36.4998 2.81771Z" fill="#1B2733"/>
<path d="M42.7827 7.65625C43.1326 7.65625 43.4479 7.6059 43.7285 7.50521C44.0092 7.40451 44.2553 7.26389 44.4667 7.08333V7.5H45.6312V0H44.3026V2.15104C44.1058 2.01215 43.8853 1.90625 43.6411 1.83333C43.3969 1.75694 43.1271 1.71875 42.8319 1.71875C42.2742 1.71875 41.7894 1.84722 41.3775 2.10417C40.9693 2.36111 40.6522 2.71354 40.4262 3.16146C40.2002 3.60937 40.0872 4.11806 40.0872 4.6875C40.0872 5.25 40.1984 5.75521 40.4207 6.20312C40.643 6.65104 40.9565 7.00521 41.3611 7.26562C41.7657 7.52604 42.2396 7.65625 42.7827 7.65625ZM42.985 6.53125C42.6423 6.53125 42.3598 6.44965 42.1375 6.28646C41.9152 6.11979 41.7493 5.89757 41.64 5.61979C41.5343 5.34201 41.4814 5.03125 41.4814 4.6875C41.4814 4.34722 41.5361 4.03819 41.6454 3.76042C41.7584 3.47917 41.9279 3.25694 42.1539 3.09375C42.3835 2.92708 42.6751 2.84375 43.0287 2.84375C43.5317 2.84375 43.8962 3.01389 44.1222 3.35417C44.3518 3.69444 44.4667 4.13889 44.4667 4.6875C44.4667 5.23264 44.3518 5.67708 44.1222 6.02083C43.8962 6.36111 43.5171 6.53125 42.985 6.53125Z" fill="#1B2733"/>
<path d="M49.3424 7.5H50.507V7.08333C50.7184 7.26389 50.9644 7.40451 51.2451 7.50521C51.5258 7.6059 51.8411 7.65625 52.191 7.65625C52.7377 7.65625 53.2116 7.52604 53.6125 7.26562C54.0171 7.00521 54.3306 6.65104 54.5529 6.20312C54.7753 5.75521 54.8865 5.25 54.8865 4.6875C54.8865 4.11806 54.7735 3.60937 54.5475 3.16146C54.3251 2.71354 54.008 2.36111 53.5961 2.10417C53.1842 1.84722 52.6995 1.71875 52.1418 1.71875C51.8465 1.71875 51.5768 1.75694 51.3326 1.83333C51.0884 1.90625 50.8678 2.01215 50.671 2.15104V0H49.3424V7.5ZM51.9887 6.53125C51.4602 6.53125 51.0811 6.36111 50.8514 6.02083C50.6218 5.67708 50.507 5.23264 50.507 4.6875C50.507 4.13889 50.62 3.69444 50.846 3.35417C51.0756 3.01389 51.4419 2.84375 51.9449 2.84375C52.2985 2.84375 52.5883 2.92708 52.8143 3.09375C53.0439 3.25694 53.2134 3.47917 53.3228 3.76042C53.4357 4.03819 53.4922 4.34722 53.4922 4.6875C53.4922 5.03125 53.4376 5.34201 53.3282 5.61979C53.2225 5.89757 53.0585 6.11979 52.8361 6.28646C52.6138 6.44965 52.3313 6.53125 51.9887 6.53125Z" fill="#1B2733"/>
<path d="M56.4729 10H57.7086L61 1.875H59.6823L58.0803 5.90104L56.4292 1.875H55.0568L57.4461 7.45833L56.4729 10Z" fill="#1B2733"/>
</g>
<defs>
<linearGradient id="paint0_linear" x1="99.6747" y1="-0.941666" x2="7.56686" y2="41.5422" gradientUnits="userSpaceOnUse">
<stop stop-color="#6455F5"/>
<stop offset="1" stop-color="#7668FB"/>
</linearGradient>
<linearGradient id="paint1_linear" x1="99.6747" y1="-0.941666" x2="7.56686" y2="41.5422" gradientUnits="userSpaceOnUse">
<stop stop-color="#6455F5"/>
<stop offset="1" stop-color="#7668FB"/>
</linearGradient>
<linearGradient id="paint2_linear" x1="99.6747" y1="-0.941666" x2="7.56686" y2="41.5422" gradientUnits="userSpaceOnUse">
<stop stop-color="#6455F5"/>
<stop offset="1" stop-color="#7668FB"/>
</linearGradient>
<linearGradient id="paint3_linear" x1="99.6747" y1="-0.941666" x2="7.56686" y2="41.5422" gradientUnits="userSpaceOnUse">
<stop stop-color="#6455F5"/>
<stop offset="1" stop-color="#7668FB"/>
</linearGradient>
<linearGradient id="paint4_linear" x1="99.6747" y1="-0.941666" x2="7.56686" y2="41.5422" gradientUnits="userSpaceOnUse">
<stop stop-color="#6455F5"/>
<stop offset="1" stop-color="#7668FB"/>
</linearGradient>
<linearGradient id="paint5_linear" x1="99.6747" y1="-0.941666" x2="7.56686" y2="41.5422" gradientUnits="userSpaceOnUse">
<stop stop-color="#6455F5"/>
<stop offset="1" stop-color="#7668FB"/>
</linearGradient>
<linearGradient id="paint6_linear" x1="99.6747" y1="-0.941666" x2="7.56686" y2="41.5422" gradientUnits="userSpaceOnUse">
<stop stop-color="#6455F5"/>
<stop offset="1" stop-color="#7668FB"/>
</linearGradient>
<linearGradient id="paint7_linear" x1="99.6747" y1="-0.941666" x2="7.56686" y2="41.5422" gradientUnits="userSpaceOnUse">
<stop stop-color="#6455F5"/>
<stop offset="1" stop-color="#7668FB"/>
</linearGradient>
<linearGradient id="paint8_linear" x1="99.6747" y1="-0.941666" x2="7.56686" y2="41.5422" gradientUnits="userSpaceOnUse">
<stop stop-color="#6455F5"/>
<stop offset="1" stop-color="#7668FB"/>
</linearGradient>
</defs>
</svg>
