<svg width="18" height="18" viewBox="0 0 18 18" fill="none" xmlns="http://www.w3.org/2000/svg">
<path d="M17.1333 12.2667L11.8 2.66669C11.0833 1.37502 10.0916 0.666687 8.99998 0.666687C7.90831 0.666687 6.91665 1.37502 6.19998 2.66669L0.866648 12.2667C0.191648 13.4917 0.116648 14.6667 0.658315 15.5917C1.19998 16.5167 2.26665 17.025 3.66665 17.025H14.3333C15.7333 17.025 16.8 16.5167 17.3416 15.5917C17.8833 14.6667 17.8083 13.4834 17.1333 12.2667ZM8.37498 6.50002C8.37498 6.15835 8.65831 5.87502 8.99998 5.87502C9.34165 5.87502 9.62498 6.15835 9.62498 6.50002V10.6667C9.62498 11.0084 9.34165 11.2917 8.99998 11.2917C8.65831 11.2917 8.37498 11.0084 8.37498 10.6667V6.50002ZM9.59165 13.7584C9.54998 13.7917 9.50832 13.825 9.46665 13.8584C9.41665 13.8917 9.36665 13.9167 9.31665 13.9334C9.26665 13.9584 9.21665 13.975 9.15831 13.9834C9.10831 13.9917 9.04998 14 8.99998 14C8.94998 14 8.89165 13.9917 8.83331 13.9834C8.78331 13.975 8.73331 13.9584 8.68331 13.9334C8.63331 13.9167 8.58331 13.8917 8.53331 13.8584C8.49165 13.825 8.44998 13.7917 8.40831 13.7584C8.25831 13.6 8.16665 13.3834 8.16665 13.1667C8.16665 12.95 8.25831 12.7334 8.40831 12.575C8.44998 12.5417 8.49165 12.5084 8.53331 12.475C8.58331 12.4417 8.63331 12.4167 8.68331 12.4C8.73331 12.375 8.78331 12.3584 8.83331 12.35C8.94165 12.325 9.05831 12.325 9.15831 12.35C9.21665 12.3584 9.26665 12.375 9.31665 12.4C9.36665 12.4167 9.41665 12.4417 9.46665 12.475C9.50832 12.5084 9.54998 12.5417 9.59165 12.575C9.74165 12.7334 9.83331 12.95 9.83331 13.1667C9.83331 13.3834 9.74165 13.6 9.59165 13.7584Z" fill="#EB5757"/>
</svg>
