<svg width="25" height="24" viewBox="0 0 25 24" fill="none" xmlns="http://www.w3.org/2000/svg">
<path d="M8.67997 16.02C7.91997 15.95 7.16998 15.6 6.58998 14.99C5.26998 13.6 5.26998 11.32 6.58998 9.93001L8.77998 7.63002C10.1 6.24002 12.27 6.24002 13.6 7.63002C14.92 9.02002 14.92 11.3 13.6 12.69L12.51 13.84" stroke="white" stroke-width="1.5" stroke-linecap="round" stroke-linejoin="round"/>
<path d="M16.3199 7.98004C17.0799 8.05004 17.8299 8.40004 18.4099 9.01004C19.7299 10.4 19.7299 12.68 18.4099 14.07L16.2199 16.37C14.8999 17.76 12.7299 17.76 11.3999 16.37C10.0799 14.98 10.0799 12.7 11.3999 11.31L12.4899 10.16" stroke="white" stroke-width="1.5" stroke-linecap="round" stroke-linejoin="round"/>
<path d="M9.5 22H15.5C20.5 22 22.5 20 22.5 15V9C22.5 4 20.5 2 15.5 2H9.5C4.5 2 2.5 4 2.5 9V15C2.5 20 4.5 22 9.5 22Z" stroke="white" stroke-width="1.5" stroke-linecap="round" stroke-linejoin="round"/>
</svg>
