<svg width="16" height="16" viewBox="0 0 16 16" fill="none" xmlns="http://www.w3.org/2000/svg">
<path d="M12.3667 1.01665C12.3667 2.34165 11.2834 3.42498 9.95837 3.42498H6.0417C4.7167 3.42498 3.63337 2.34165 3.63337 1.01665C3.63337 0.549983 3.13337 0.258316 2.7167 0.474983C1.5417 1.09998 0.741699 2.34165 0.741699 3.76665V11.6083C0.741699 13.6583 2.4167 15.3333 4.4667 15.3333H11.5334C13.5834 15.3333 15.2584 13.6583 15.2584 11.6083V3.76665C15.2584 2.34165 14.4584 1.09998 13.2834 0.474983C12.8667 0.258316 12.3667 0.549983 12.3667 1.01665ZM10.7834 7.60832L7.45003 10.9416C7.32503 11.0666 7.1667 11.125 7.00837 11.125C6.85003 11.125 6.6917 11.0666 6.5667 10.9416L5.3167 9.69165C5.07503 9.44998 5.07503 9.04998 5.3167 8.80832C5.55837 8.56665 5.95837 8.56665 6.20003 8.80832L7.00837 9.61665L9.90003 6.72498C10.1417 6.48332 10.5417 6.48332 10.7834 6.72498C11.025 6.96665 11.025 7.36665 10.7834 7.60832Z" fill="#27AE60"/>
</svg>
