<svg width="24" height="24" viewBox="0 0 24 24" fill="none" xmlns="http://www.w3.org/2000/svg">
<path d="M16.8883 0.333374H7.11166C2.86499 0.333374 0.333328 2.86504 0.333328 7.11171V16.8767C0.333328 21.135 2.86499 23.6667 7.11166 23.6667H16.8767C21.1233 23.6667 23.655 21.135 23.655 16.8884V7.11171C23.6667 2.86504 21.135 0.333374 16.8883 0.333374ZM7.54333 17.565C7.52 17.565 7.48499 17.565 7.46166 17.565C6.32999 17.46 5.26833 16.935 4.475 16.095C2.60833 14.135 2.60833 10.95 4.475 8.99004L7.02999 6.30671C7.93999 5.35004 9.16499 4.81337 10.4717 4.81337C11.7783 4.81337 13.0033 5.33837 13.9133 6.30671C15.78 8.26671 15.78 11.4517 13.9133 13.4117L12.6417 14.7534C12.3033 15.1034 11.755 15.115 11.405 14.7884C11.055 14.45 11.0433 13.9017 11.37 13.5517L12.6417 12.21C13.8783 10.915 13.8783 8.80337 12.6417 7.52004C11.4867 6.30671 9.45666 6.30671 8.28999 7.52004L5.73499 10.2034C4.49833 11.4984 4.49833 13.61 5.73499 14.8934C6.23666 15.43 6.91333 15.7567 7.62499 15.8267C8.10333 15.8734 8.45333 16.305 8.40666 16.7834C8.37166 17.2267 7.98666 17.565 7.54333 17.565ZM19.525 15.0217L16.97 17.705C16.06 18.6617 14.835 19.1984 13.5283 19.1984C12.2217 19.1984 10.9967 18.6734 10.0867 17.705C8.21999 15.745 8.21999 12.56 10.0867 10.6L11.3583 9.25837C11.6967 8.90837 12.245 8.89671 12.595 9.22337C12.945 9.56171 12.9567 10.11 12.63 10.46L11.3583 11.8017C10.1217 13.0967 10.1217 15.2084 11.3583 16.4917C12.5133 17.705 14.5433 17.7167 15.71 16.4917L18.265 13.8084C19.5017 12.5134 19.5017 10.4017 18.265 9.11837C17.7633 8.58171 17.0867 8.25504 16.375 8.18504C15.8967 8.13837 15.5467 7.70671 15.5933 7.22837C15.64 6.75004 16.06 6.38837 16.55 6.44671C17.6817 6.56337 18.7433 7.07671 19.5367 7.91671C21.3917 9.86504 21.3917 13.0617 19.525 15.0217Z" fill="#7A6EF0"/>
</svg>
