<svg width="28" height="28" viewBox="0 0 28 28" fill="none" xmlns="http://www.w3.org/2000/svg">
<path d="M18.8883 2.33337H9.11165C4.86498 2.33337 2.33331 4.86504 2.33331 9.11171V18.8767C2.33331 23.135 4.86498 25.6667 9.11165 25.6667H18.8766C23.1233 25.6667 25.655 23.135 25.655 18.8884V9.11171C25.6666 4.86504 23.135 2.33337 18.8883 2.33337ZM9.54331 19.565C9.51998 19.565 9.48498 19.565 9.46165 19.565C8.32998 19.46 7.26831 18.935 6.47498 18.095C4.60831 16.135 4.60831 12.95 6.47498 10.99L9.02998 8.30671C9.93998 7.35004 11.165 6.81337 12.4716 6.81337C13.7783 6.81337 15.0033 7.33837 15.9133 8.30671C17.78 10.2667 17.78 13.4517 15.9133 15.4117L14.6416 16.7534C14.3033 17.1034 13.755 17.115 13.405 16.7884C13.055 16.45 13.0433 15.9017 13.37 15.5517L14.6416 14.21C15.8783 12.915 15.8783 10.8034 14.6416 9.52004C13.4866 8.30671 11.4566 8.30671 10.29 9.52004L7.73498 12.2034C6.49831 13.4984 6.49831 15.61 7.73498 16.8934C8.23665 17.43 8.91331 17.7567 9.62498 17.8267C10.1033 17.8734 10.4533 18.305 10.4066 18.7834C10.3716 19.2267 9.98665 19.565 9.54331 19.565ZM21.525 17.0217L18.97 19.705C18.06 20.6617 16.835 21.1984 15.5283 21.1984C14.2216 21.1984 12.9966 20.6734 12.0866 19.705C10.22 17.745 10.22 14.56 12.0866 12.6L13.3583 11.2584C13.6966 10.9084 14.245 10.8967 14.595 11.2234C14.945 11.5617 14.9566 12.11 14.63 12.46L13.3583 13.8017C12.1216 15.0967 12.1216 17.2084 13.3583 18.4917C14.5133 19.705 16.5433 19.7167 17.71 18.4917L20.265 15.8084C21.5016 14.5134 21.5016 12.4017 20.265 11.1184C19.7633 10.5817 19.0866 10.255 18.375 10.185C17.8966 10.1384 17.5466 9.70671 17.5933 9.22837C17.64 8.75004 18.06 8.38837 18.55 8.44671C19.6816 8.56337 20.7433 9.07671 21.5366 9.91671C23.3916 11.865 23.3916 15.0617 21.525 17.0217Z" fill="#29343E"/>
</svg>
