<svg width="88" height="46" viewBox="0 0 88 46" fill="none" xmlns="http://www.w3.org/2000/svg">
<path d="M12.3794 7.04235C12.3551 5.61493 12.3067 4.18752 12.2825 2.7601C12.2825 2.56655 12.3309 2.3972 12.3309 2.20365C12.3551 1.52623 12.5005 0.824622 11.8949 0.171397C11.7738 0.147202 11.5557 0.0504295 11.362 0.0504295C10.7564 0.0262349 10.1508 0.00204168 9.54517 0.00204168C9.13336 -0.0221515 8.79423 0.171397 8.52777 0.437525C7.80105 1.11494 7.12278 1.81655 6.56563 2.61494C6.49296 2.71171 6.42029 2.7843 6.3234 2.88107C6.27495 2.80849 6.25072 2.80849 6.2265 2.7601C5.81469 1.93752 5.13643 1.30849 4.55505 0.582686C4.31282 0.268171 3.99791 0.098816 3.56188 0.147202C3.51343 0.171397 3.44076 0.147202 3.36808 0.147202C2.78671 0.147202 2.20534 0.123009 1.59974 0.123009C1.21216 0.123009 0.945699 0.340751 0.82458 0.67946C0.703461 0.945589 0.606565 1.21172 0.582341 1.50204C0.485446 2.15526 0.436998 2.83268 0.388551 3.5101C0.315879 4.6472 0.267431 5.78429 0.218984 6.89719C0.146312 8.13106 0.000968954 9.36493 0.000968954 10.5988C0.000968954 13.1875 -0.0232549 15.7762 0.170536 18.3407C0.218984 18.9939 0.558118 19.4536 1.13949 19.6956C1.52707 19.8407 1.93888 19.9375 2.35068 19.9859C2.88361 20.0827 3.39231 19.8649 3.90101 19.6714C4.0948 19.5988 4.21592 19.4536 4.26437 19.2601C4.28859 19.0907 4.31282 18.9214 4.31282 18.752C4.38549 17.5423 4.43393 16.3085 4.48238 15.0988C4.50661 14.2036 4.57928 13.3085 4.57928 12.4133C4.6035 10.8165 4.57928 9.19557 4.55505 7.5988C4.55505 7.30848 4.55505 6.99397 4.53083 6.70364C4.57928 6.67945 4.6035 6.67945 4.62773 6.67945C4.77307 6.92139 4.91841 7.16332 5.08798 7.40526C5.23332 7.67138 5.40289 7.93751 5.59668 8.17945C5.96004 8.63912 6.46874 8.61493 6.8321 8.15525C7.17123 7.71977 7.51036 7.28429 7.87372 6.84881C7.92217 6.77622 7.97062 6.75203 8.06751 6.65526C8.01906 7.11493 7.97062 7.50203 7.94639 7.88913C7.89795 9.34074 7.82527 10.7923 7.8495 12.244C7.8495 13.8407 7.92217 15.4375 7.87372 17.0101C7.8495 18.4617 7.89795 19.8891 7.94639 21.3407C7.94639 21.5343 7.97062 21.752 8.01906 21.9456C8.18863 22.4294 8.67311 22.7681 9.18181 22.8649C9.59362 22.9617 10.1508 23.0101 10.5626 22.8649C10.8775 22.7681 11.3135 22.6472 11.5557 22.4294C11.8949 22.1391 11.9191 21.631 12.016 21.2197C12.1613 20.6391 12.1613 20.0101 12.1856 19.4052C12.234 18.1714 12.1856 16.9375 12.2582 15.7036C12.3067 14.3972 12.4278 13.0907 12.452 11.7843C12.452 10.2117 12.4036 8.63912 12.3794 7.04235Z" fill="url(#paint0_linear)"/>
<path d="M21.2491 17.1794C21.2733 17.0343 21.2975 16.8891 21.3217 16.7681C21.6124 15.1472 21.564 13.5504 21.6367 11.9294C21.6367 11.3246 21.6851 10.6956 21.7093 10.0665C21.7336 9.70364 21.7578 9.31654 21.782 8.92945C21.782 8.15525 21.782 7.35687 21.782 6.58268C21.8062 6.26816 21.8547 5.92945 21.8304 5.63913C21.7578 5.10687 21.6609 4.57462 21.5398 4.06655C21.4671 3.77623 21.346 3.5101 21.2491 3.21978C21.128 2.95365 20.9099 2.7601 20.6193 2.66333C20.2074 2.56655 19.7956 2.46978 19.3838 2.42139C18.8751 2.34881 18.3664 2.32462 17.8577 2.27623C17.0099 2.17946 16.1621 2.22784 15.3142 2.30043C14.8055 2.34881 14.3211 2.56655 14.0546 3.05042C13.8608 3.36494 13.7155 3.72784 13.5701 4.09075C13.4974 4.23591 13.4732 4.40526 13.449 4.57462C13.4248 5.08268 13.4005 5.61494 13.3763 6.123C13.3279 6.84881 13.2552 7.55042 13.2068 8.27622C13.1341 9.19558 13.0372 10.1149 13.013 11.0585C12.9645 12.2682 12.9403 13.4778 12.9403 14.6875C12.9403 15.3891 12.9403 16.0907 13.1099 16.7681C13.2794 17.4456 13.6186 18.0988 14.2242 18.4859C14.7571 18.8488 15.4596 18.9456 16.1136 18.8972C16.7677 18.873 17.4217 18.7278 18.0758 18.6794C18.6329 18.6552 19.19 18.6552 19.7472 18.5585C20.595 18.3891 21.0553 18.002 21.2491 17.1794ZM18.0515 6.67945C18.2453 7.16332 18.2695 7.69558 18.2938 8.20364C18.3422 9.12299 18.3907 10.0423 18.4149 10.9617C18.4391 11.4456 18.3907 11.9294 18.3664 12.4133C18.3664 12.752 18.3907 13.0907 18.3664 13.4536C18.3664 13.8165 18.3664 14.1794 18.318 14.5423C18.2938 14.8085 18.1242 14.9294 17.9062 15.0262C17.7124 15.0988 17.5186 15.1472 17.3248 15.1956C17.0341 15.244 16.6465 14.9778 16.6223 14.6633C16.5739 14.2762 16.5739 13.8649 16.5981 13.4778C16.6223 12.3649 16.7677 11.252 16.695 10.1391C16.6465 9.67945 16.6223 9.19557 16.6223 8.7359C16.6223 8.22783 16.6465 7.74396 16.6708 7.26009C16.6708 6.75203 17.0099 6.41332 17.5186 6.43752C17.7366 6.43752 17.9062 6.4859 18.0515 6.67945Z" fill="url(#paint1_linear)"/>
<path d="M27.7821 6.07461C27.8306 6.58268 27.9033 7.09074 27.8064 7.57461C27.7579 7.88913 27.7821 8.20364 28.0244 8.42138C28.2908 8.63912 28.6057 8.78429 28.9691 8.78429C29.4778 8.76009 29.9623 8.59074 30.4225 8.3488C30.9312 8.08267 31.1977 7.64719 31.1735 7.04235C31.1492 5.373 31.6337 3.19559 29.6716 2.44559C28.9691 2.17946 28.2182 2.15526 27.4672 2.13107C26.1349 2.10688 24.6088 1.84075 23.3976 2.51817C23.1796 2.63913 23.0343 2.80849 22.9374 3.05042C22.6467 3.84881 22.6951 4.86494 22.5982 5.7359C22.5013 6.80042 22.4287 7.86493 22.3802 8.92945C22.3075 11.0101 22.3802 13.0907 22.6225 15.1714C22.6951 15.9456 22.792 16.7198 23.1069 17.3972C23.4218 18.0988 23.979 18.7278 24.7299 18.9698C25.1175 19.0907 25.5535 19.0907 25.9653 19.0907C27.4672 19.1149 29.1387 19.3327 30.5679 18.7036C30.907 18.5585 31.1493 18.3165 31.3188 18.002C31.5368 17.5907 31.5126 17.1794 31.4884 16.7439C31.4884 16.3327 31.4642 15.8972 31.4884 15.4859C31.5126 14.9536 31.4884 14.4214 31.3915 13.8891C31.2704 13.2117 30.8343 12.7762 30.1803 12.6552C29.5747 12.5343 29.0175 12.6552 28.4846 12.9456C28.2424 13.0665 28.1455 13.2843 28.1697 13.5504C28.1697 13.9859 28.1697 14.3972 28.1697 14.8085C28.1697 15.002 28.1213 15.1714 27.9759 15.2923C27.7095 15.2923 27.4188 15.2923 27.1523 15.2923C26.7163 15.2681 26.4498 15.0262 26.4014 14.5907C26.3771 14.252 26.3771 13.9375 26.3771 13.5988C26.3529 12.8246 26.3771 12.0262 26.3287 11.252C26.3045 10.6714 26.1834 10.0907 26.1591 9.51009C26.1107 8.66332 26.0865 7.81655 26.0622 6.96977C26.0622 6.72784 26.1107 6.51009 26.2318 6.29235C26.7163 6.05042 27.225 6.05042 27.7821 6.07461Z" fill="url(#paint2_linear)"/>
<path d="M35.7618 2.46978C35.568 2.42139 35.3742 2.34881 35.1804 2.32462C34.6475 2.30043 34.0904 2.27623 33.5574 2.27623C33.2425 2.25204 33.0003 2.44559 32.8792 2.71171C32.7823 2.95365 32.6854 3.19559 32.6612 3.46171C32.5643 3.99397 32.5158 4.52623 32.4674 5.05848C32.3947 6.14719 32.3705 7.21171 32.2494 8.27622C32.1525 9.19558 32.0798 10.1149 32.0556 11.0343C32.0071 13.2359 31.9587 15.4133 32.104 17.5907C32.1282 18.123 32.3705 18.4859 32.8307 18.7278C33.291 18.9698 33.7755 19.0181 34.2599 18.9698C34.5264 18.9456 34.7686 18.8972 35.0109 18.873C35.3258 18.8246 35.5438 18.6552 35.6407 18.3407C35.6649 18.2439 35.6891 18.123 35.6891 18.0262C35.7134 17.5665 35.7618 17.1069 35.7618 16.6472C35.7618 15.6794 35.568 14.5181 35.7618 13.5746C36.0525 13.6714 36.1978 14.1794 36.3432 14.4456C36.5612 14.8811 36.7792 15.2923 36.973 15.7036C37.409 16.5504 37.8451 17.3972 38.2811 18.2439C38.378 18.4375 38.4991 18.6552 38.6687 18.8246C39.0078 19.0907 39.4681 19.0907 39.8799 19.0907C40.4855 19.0665 41.0668 19.0423 41.6482 18.9939C41.7693 18.9698 41.8662 18.9698 41.9631 18.9214C42.0842 18.8488 42.1569 18.7278 42.2054 18.6068C42.4234 18.0746 42.1569 17.4456 41.8662 16.9375C41.406 16.0423 40.873 15.1472 40.4855 14.2036C40.2432 13.6956 40.001 13.1633 39.7345 12.6552C39.5892 12.4133 39.4196 12.1956 39.2743 11.9536C38.8382 11.2036 38.4264 10.4536 37.9904 9.65525C38.16 9.43751 38.3295 9.19557 38.5476 8.95364C39.0078 8.44558 39.3954 7.86493 39.7587 7.26009C39.9768 6.873 40.2432 6.51009 40.5339 6.14719C40.8246 5.80848 41.0911 5.42139 41.3333 5.0101C41.624 4.50203 41.9631 4.01816 42.278 3.53429C42.3507 3.41333 42.4234 3.29236 42.496 3.17139C42.6656 2.7601 42.4718 2.3972 42.0358 2.34881C41.4786 2.27623 40.9215 2.22784 40.3401 2.27623C40.1221 2.30043 39.9041 2.32462 39.7103 2.32462C39.1774 2.27623 38.8382 2.51817 38.596 2.95365C38.4749 3.17139 38.3295 3.34075 38.1842 3.53429C37.942 3.8972 37.6513 4.23591 37.3848 4.59881C37.2395 4.79236 37.0699 5.0101 36.9246 5.22784C36.6581 5.56655 36.3916 5.90526 36.1252 6.24397C35.9798 6.43752 35.8345 6.63106 35.6891 6.82461C35.6649 6.80042 35.6407 6.77622 35.6407 6.75203C35.6407 6.41332 35.6165 6.05042 35.7618 5.71171C35.8103 5.61494 35.8103 5.51816 35.8103 5.3972C35.8345 4.57462 35.8345 3.72784 35.8345 2.90526C35.8345 2.7843 35.786 2.63913 35.7618 2.46978Z" fill="url(#paint3_linear)"/>
<path d="M50.8682 3.123C50.7229 3.00204 50.5775 2.90526 50.4322 2.7843C50.0446 2.46978 49.5844 2.27623 49.0999 2.20365C47.7191 2.0101 46.3626 1.96172 44.9818 1.98591C44.57 1.98591 44.1582 2.05849 43.7949 2.25204C43.6253 2.32462 43.4799 2.44559 43.4073 2.61494C43.3104 2.80849 43.2377 3.00204 43.1893 3.19559C43.1166 3.60687 43.0439 4.04236 43.0197 4.45365C42.947 5.13107 42.947 5.78429 42.8986 6.46171C42.8986 6.75203 42.8743 7.01816 42.8501 7.30848C42.7048 8.68751 42.5352 10.0665 42.5352 11.4456C42.5352 13.4778 42.4383 15.5343 42.6079 17.5907C42.6321 17.881 42.6806 18.1714 42.729 18.4617C42.7775 18.8004 42.9955 18.9939 43.3346 19.1149C44.0129 19.381 44.6911 19.3085 45.3452 19.1391C45.7085 19.0423 45.9266 18.8246 45.975 18.4375C46.0235 18.002 46.0719 17.5665 46.0961 17.131C46.1203 16.381 46.0961 15.631 46.0961 14.9052C46.0961 14.6391 46.1203 14.373 46.1203 14.1069C46.1446 13.5988 46.1688 13.0665 46.193 12.5585C46.193 12.4859 46.2172 12.4133 46.2172 12.3165C46.3384 12.2923 46.4353 12.2923 46.5322 12.2682C46.8955 12.2682 47.2831 12.2682 47.6465 12.244C48.1794 12.2198 48.7123 12.1714 49.221 12.0988C50.0931 11.9536 50.7229 11.2036 50.844 10.3327C50.8924 9.87299 50.9893 9.41332 51.0378 8.92945C51.1105 8.17945 51.1831 7.40526 51.2074 6.65526C51.2558 5.7359 51.2074 4.84074 51.1105 3.92139C51.0862 3.63107 51.0378 3.36494 50.8682 3.123ZM48.5427 6.55848C48.4943 7.06655 48.4701 7.5988 48.3974 8.10687C48.3247 8.66332 48.0825 8.92945 47.5253 9.00203C47.2104 9.05041 46.8955 9.07461 46.5806 9.05041C46.193 9.02622 45.9992 8.78429 46.0477 8.39719C46.0719 7.9859 46.0719 7.5988 46.1203 7.18751C46.1446 6.82461 46.1688 6.46171 46.2172 6.09881C46.2172 5.90526 46.2415 5.71171 46.2657 5.51816C46.2899 5.25203 46.4353 5.08268 46.6775 5.10687C47.1377 5.13107 47.6222 5.15526 48.1067 5.25203C48.4458 5.30042 48.5185 5.44558 48.5185 5.78429C48.5185 6.02623 48.5185 6.29236 48.5185 6.55848H48.5427Z" fill="url(#paint4_linear)"/>
<path d="M57.8897 12.1472C57.8897 12.0988 57.8655 12.0746 57.8655 12.0262C57.8413 11.9294 57.7928 11.8327 57.8655 11.7601C57.914 11.7117 57.9624 11.7117 58.0351 11.6875C58.2773 11.6633 58.5196 11.6149 58.7618 11.5423C59.2947 11.3246 59.6823 10.8165 59.8519 10.2843C60.0457 9.72783 60.0699 9.14719 60.0941 8.56654C60.1426 7.74396 60.1426 6.94558 60.191 6.123C60.2637 5.10687 60.5301 3.72784 59.9003 2.83268C59.4643 2.22784 58.6649 2.0343 57.9382 2.0101C56.5332 1.96172 55.1524 2.0101 53.7475 2.0101C53.3841 1.98591 53.045 2.08268 52.7058 2.25204C52.512 2.34881 52.3667 2.51817 52.2698 2.73591C52.076 3.1472 52.0276 3.58268 52.0033 4.04236C51.9791 4.98591 51.9549 5.92945 51.9064 6.873C51.9064 6.94558 51.9064 7.01816 51.9064 7.11493C51.858 8.13106 51.8095 9.17138 51.9064 10.2117C51.9064 10.4294 51.9064 10.6472 51.8822 10.8407C51.8338 11.373 51.7853 11.9052 51.7369 12.4375C51.7127 12.8246 51.7369 13.2117 51.7611 13.5988C51.7611 14.3246 51.8096 15.0504 51.8096 15.7762C51.8096 16.6714 51.7611 17.5423 51.7369 18.4133C51.7369 18.8488 51.8338 18.9698 52.2214 19.1391C52.8996 19.4052 53.5779 19.3327 54.2562 19.1633C54.6195 19.0665 54.8133 18.8246 54.886 18.4375C55.0555 17.4698 55.0313 16.4778 54.9829 15.5101C54.9829 15.0746 55.0555 14.6391 55.0798 14.2036C55.4431 14.8569 55.6611 15.6069 55.9761 16.2843C56.291 17.0585 56.6301 17.8085 56.9692 18.5585C57.0661 18.7762 57.163 18.9939 57.3568 19.1391C57.599 19.3327 57.9382 19.3568 58.2289 19.3568C58.8102 19.381 59.8034 19.4536 60.1426 18.8972C60.3848 18.5101 60.1668 17.9778 59.973 17.5665C59.1494 15.8004 58.4953 13.9859 57.8897 12.1472ZM56.4848 8.20364C56.0003 8.25203 55.54 8.49396 55.0555 8.42138C54.8618 7.88913 54.9102 6.07461 55.1524 5.373C55.3705 5.22784 55.6127 5.30042 55.8549 5.32461C56.0972 5.373 56.3394 5.44558 56.6059 5.49397C56.7997 5.51816 56.8966 5.61494 56.8966 5.80848C56.9208 5.97784 56.9208 6.17139 56.9208 6.34074C56.9208 6.70364 56.8966 7.04235 56.8966 7.38106C56.8723 7.71977 56.8239 8.01009 56.4848 8.20364Z" fill="url(#paint5_linear)"/>
<path d="M69.4203 7.38106C69.4203 7.30848 69.4445 7.2359 69.4445 7.16332C69.4445 6.36493 69.4445 5.54236 69.4687 4.74397C69.4687 4.57461 69.4687 4.42945 69.493 4.2601C69.5414 3.99397 69.5899 3.70365 69.493 3.43752C69.3961 3.21978 69.2992 2.97784 69.2023 2.7601C69.0569 2.3972 68.7662 2.20365 68.3787 2.15526C68.0638 2.10688 67.7246 2.05849 67.3855 2.05849C66.1743 2.05849 64.8904 1.96172 63.7035 2.22784C63.0736 2.37301 62.4438 2.63913 61.9836 3.123C60.7724 4.35687 61.0388 6.14719 60.9662 7.69558C60.9177 8.51816 60.845 9.34074 60.8208 10.1633C60.7966 11.2762 60.7966 12.3649 60.8208 13.4536C60.845 14.5181 60.7481 15.6069 60.9904 16.6472C61.1115 17.2762 61.2811 17.9294 61.7656 18.3649C62.1774 18.7278 62.7345 18.8488 63.2917 18.9214C64.2848 19.0665 65.278 19.0907 66.2954 18.9939C67.1675 18.9214 68.306 18.8972 69.0327 18.3407C69.3476 18.0988 69.5172 17.7843 69.5656 17.3972C69.6141 16.9133 69.6141 16.4294 69.6141 15.9456C69.6141 15.4859 69.5656 15.0504 69.5172 14.6149C69.5172 14.4698 69.4687 14.3004 69.3718 14.1552C69.2265 13.9375 69.0327 13.7198 68.742 13.744C68.0638 13.744 67.3855 13.744 66.7314 13.9133C66.5134 13.9617 66.3681 14.0343 66.3196 14.1311C66.1743 14.6149 66.3196 15.0504 66.0532 15.4133C65.7867 15.3891 65.5445 15.3891 65.3022 15.3891C65.278 15.3891 65.2296 15.3891 65.2053 15.3891C64.7451 15.3407 64.5029 15.0746 64.4786 14.6391C64.4786 13.9859 64.4786 13.3327 64.4786 12.6794C64.4786 12.6311 64.5029 12.5827 64.5271 12.5343C64.7209 12.4859 64.9146 12.4617 65.1084 12.4375C65.3991 12.4375 65.6898 12.4375 66.0047 12.4133C66.1985 12.3891 66.4165 12.3649 66.6346 12.2923C66.9252 12.2198 67.119 12.002 67.1675 11.6875C67.1917 11.4214 67.2159 11.1552 67.2159 10.8891C67.1917 10.4294 67.119 9.96977 67.0948 9.51009C67.0948 8.97783 66.6588 8.46977 65.9805 8.51816C65.5445 8.54235 65.1084 8.54235 64.6724 8.56654C64.5513 8.56654 64.4544 8.56654 64.3333 8.56654C64.3333 7.9859 64.3333 7.42945 64.3333 6.873C64.3575 6.70364 64.4302 6.55848 64.4786 6.38913C65.0116 6.14719 65.5202 6.14719 66.0532 6.19558C66.1258 6.55848 66.1743 6.873 66.2227 7.21171C66.247 7.5988 66.4165 7.86493 66.7557 8.03429C67.2401 8.01009 67.7004 8.01009 68.1607 7.9859C68.3302 7.96171 68.4998 7.86493 68.6936 7.84074C69.0085 7.79235 69.2265 7.623 69.4203 7.38106Z" fill="url(#paint6_linear)"/>
<path d="M75.6407 8.15525C75.8345 8.17945 76.0283 8.22783 76.2221 8.22783C76.8035 8.27622 77.3606 8.17945 77.942 8.13106C78.16 8.10687 78.378 8.03429 78.5718 7.93751C78.6929 7.623 78.7171 7.33267 78.7171 7.01816C78.7414 6.63106 78.7656 6.21977 78.7898 5.83268C78.7898 5.7601 78.7898 5.71171 78.7898 5.63913C78.7898 5.05848 78.7898 4.47784 78.7898 3.8972C78.814 3.53429 78.7898 3.17139 78.6202 2.83268C78.4507 2.46978 78.1842 2.25204 77.8209 2.20365C77.4817 2.13107 77.1426 2.05849 76.7792 2.05849C75.3742 2.08268 73.9693 1.96172 72.5401 2.05849C72.0798 2.08268 71.6438 2.15526 71.2077 2.34881C71.0382 2.44559 70.8686 2.54236 70.7959 2.73591C70.699 2.92946 70.6021 3.09881 70.5779 3.31655C70.4326 4.09074 70.2872 4.88913 70.3841 5.68752C70.3841 5.7601 70.3841 5.85687 70.3841 5.92945C70.2872 6.80042 70.2872 7.67138 70.4568 8.54235C70.481 8.68751 70.5052 8.80848 70.5052 8.95364C70.4568 9.26816 70.6021 9.53428 70.8202 9.75203C71.0866 9.99396 71.3531 10.2601 71.6438 10.4778C72.104 10.8407 72.5885 11.1552 73.0488 11.494C73.291 11.6875 73.509 11.8811 73.727 12.0988C73.9208 12.2923 74.1146 12.5101 74.3084 12.7036C74.5991 12.994 74.8655 13.2601 75.132 13.502C75.132 13.623 75.1562 13.7198 75.1562 13.7923C75.1562 14.0585 75.1562 14.3246 75.1562 14.5907C75.132 15.002 74.8898 15.244 74.5022 15.3165C74.2115 15.3407 73.8966 15.3407 73.5817 15.3649C73.509 15.2198 73.4363 15.0988 73.4363 14.9536C73.3879 14.5423 73.3637 14.1069 73.3394 13.6956C73.3394 13.3085 73.1941 13.1149 72.8307 12.994C72.4432 12.8246 72.0314 12.7762 71.5953 12.8004C70.8686 12.8488 70.263 13.3569 70.1661 14.0585C70.1419 14.3004 70.1177 14.5665 70.1177 14.8085C70.1177 15.8246 70.0934 16.8165 70.1903 17.8327C70.2146 18.1956 70.4084 18.4617 70.6264 18.7036C70.699 18.7762 70.7959 18.8246 70.8928 18.8488C71.2077 18.9214 71.5469 18.9456 71.8618 18.9939C72.104 19.0181 72.3705 19.0423 72.6369 19.0665C73.0972 19.0907 73.5817 19.1633 74.0662 19.1633C74.4295 19.1875 74.8171 19.1391 75.2047 19.1149C75.786 19.0907 76.3674 19.0907 76.9488 19.0665C77.3848 19.0423 77.8209 18.9214 78.1842 18.6552C78.3296 18.5101 78.4507 18.3649 78.4749 18.1714C78.5234 17.7601 78.596 17.3488 78.6202 16.9375C78.6445 16.0181 78.6687 15.0988 78.6445 14.1552C78.6445 13.3569 78.5718 12.5585 78.378 11.7601C78.3538 11.6633 78.3053 11.5665 78.2569 11.4698C77.8693 11.0101 77.5302 10.5262 77.0215 10.2117C76.1736 9.65525 75.3985 9.02622 74.6475 8.373C74.2599 8.03429 73.9208 7.67138 73.5817 7.30848C73.6059 6.94558 73.6059 6.60687 73.8239 6.29235C74.3326 6.07461 74.8413 6.123 75.3742 6.17139C75.4469 6.82461 75.35 7.47784 75.6407 8.15525Z" fill="url(#paint7_linear)"/>
<path d="M84.8429 8.15525C85.0367 8.17945 85.2305 8.22783 85.4243 8.22783C86.0057 8.27622 86.5628 8.17945 87.1442 8.13106C87.3622 8.10687 87.5802 8.03429 87.774 7.93751C87.8951 7.623 87.9194 7.33267 87.9194 7.01816C87.9436 6.63106 87.9678 6.21977 87.992 5.83268C87.992 5.7601 87.992 5.71171 87.992 5.63913C87.992 5.05848 87.992 4.47784 87.992 3.8972C88.0163 3.53429 87.992 3.17139 87.8225 2.83268C87.6529 2.46978 87.3864 2.25204 87.0231 2.20365C86.684 2.13107 86.3448 2.05849 85.9815 2.05849C84.5765 2.08268 83.1715 1.96172 81.7423 2.05849C81.282 2.08268 80.846 2.15526 80.41 2.34881C80.2404 2.44559 80.0708 2.54236 79.9982 2.73591C79.9013 2.92946 79.8044 3.09881 79.7801 3.31655C79.6348 4.09074 79.4895 4.88913 79.5864 5.68752C79.5864 5.7601 79.5864 5.85687 79.5864 5.92945C79.4895 6.80042 79.4895 7.67138 79.659 8.54235C79.6833 8.68751 79.7075 8.80848 79.7075 8.95364C79.659 9.26816 79.8044 9.53428 80.0224 9.75203C80.2888 9.99396 80.5553 10.2601 80.846 10.4778C81.3063 10.8407 81.7907 11.1552 82.251 11.494C82.4932 11.6875 82.7112 11.8811 82.9293 12.0988C83.123 12.2923 83.3168 12.5101 83.5106 12.7036C83.8013 12.994 84.0678 13.2601 84.3342 13.502C84.3342 13.623 84.3585 13.7198 84.3585 13.7923C84.3585 14.0585 84.3585 14.3246 84.3585 14.5907C84.3342 15.002 84.092 15.244 83.7044 15.3165C83.4137 15.3407 83.0988 15.3407 82.7839 15.3649C82.7112 15.2198 82.6386 15.0988 82.6386 14.9536C82.5901 14.5423 82.5659 14.1069 82.5417 13.6956C82.5417 13.3085 82.3963 13.1149 82.033 12.994C81.6454 12.8246 81.2336 12.7762 80.7976 12.8004C80.0708 12.8488 79.4652 13.3569 79.3683 14.0585C79.3441 14.3004 79.3199 14.5665 79.3199 14.8085C79.3199 15.8246 79.2957 16.8165 79.3926 17.8327C79.4168 18.1956 79.6106 18.4617 79.8286 18.7036C79.9013 18.7762 79.9982 18.8246 80.0951 18.8488C80.41 18.9214 80.7491 18.9456 81.064 18.9939C81.3063 19.0181 81.5727 19.0423 81.8392 19.0665C82.2994 19.0907 82.7839 19.1633 83.2684 19.1633C83.6317 19.1875 84.0193 19.1391 84.4069 19.1149C84.9883 19.0907 85.5696 19.0907 86.151 19.0665C86.5871 19.0423 87.0231 18.9214 87.3864 18.6552C87.5318 18.5101 87.6529 18.3649 87.6771 18.1714C87.7256 17.7601 87.7982 17.3488 87.8225 16.9375C87.8467 16.0181 87.8709 15.0988 87.8467 14.1552C87.8467 13.3569 87.774 12.5585 87.5802 11.7601C87.556 11.6633 87.5076 11.5665 87.4591 11.4698C87.0715 11.0101 86.7324 10.5262 86.2237 10.2117C85.3759 9.65525 84.6007 9.02622 83.8498 8.373C83.4622 8.03429 83.123 7.67138 82.7839 7.30848C82.8081 6.94558 82.8081 6.60687 83.0261 6.29235C83.5349 6.07461 84.0435 6.123 84.5765 6.17139C84.6491 6.82461 84.5523 7.47784 84.8429 8.15525Z" fill="url(#paint8_linear)"/>
<rect y="27.3293" width="88" height="18.5839" rx="9.29193" fill="url(#paint9_linear)"/>
<path d="M24.5219 38.7479C23.9841 38.7479 23.5425 38.6211 23.197 38.3675C22.8516 38.1095 22.6657 37.7422 22.6395 37.2656H24.0103C24.0235 37.4274 24.0716 37.5454 24.1546 37.6198C24.2377 37.6941 24.3448 37.7313 24.476 37.7313C24.5941 37.7313 24.6903 37.7028 24.7646 37.646C24.8433 37.5848 24.8827 37.5017 24.8827 37.3968C24.8827 37.2612 24.8193 37.1563 24.6925 37.0819C24.5657 37.0076 24.3602 36.9245 24.0759 36.8327C23.7742 36.7321 23.5293 36.6359 23.3413 36.5441C23.1577 36.4479 22.9959 36.3101 22.856 36.1309C22.7204 35.9472 22.6526 35.7089 22.6526 35.4159C22.6526 35.1186 22.727 34.865 22.8756 34.6551C23.0243 34.4408 23.2298 34.279 23.4922 34.1697C23.7545 34.0604 24.0519 34.0057 24.3842 34.0057C24.922 34.0057 25.3506 34.1326 25.6698 34.3862C25.9933 34.6354 26.1661 34.9874 26.1879 35.4422H24.7909C24.7865 35.3022 24.7428 35.1973 24.6597 35.1273C24.581 35.0574 24.4782 35.0224 24.3514 35.0224C24.2552 35.0224 24.1765 35.0508 24.1153 35.1077C24.0541 35.1645 24.0235 35.2454 24.0235 35.3503C24.0235 35.4378 24.0563 35.5143 24.1218 35.5799C24.1918 35.6411 24.2771 35.6958 24.3776 35.7439C24.4782 35.7876 24.6269 35.8445 24.8237 35.9144C25.1166 36.015 25.3571 36.1156 25.5451 36.2161C25.7375 36.3123 25.9015 36.4501 26.0371 36.6293C26.177 36.8043 26.247 37.0273 26.247 37.2984C26.247 37.5738 26.177 37.8209 26.0371 38.0395C25.9015 38.2582 25.7026 38.4309 25.4402 38.5577C25.1822 38.6845 24.8761 38.7479 24.5219 38.7479ZM26.6347 36.8589C26.6347 36.4785 26.7025 36.1462 26.838 35.8619C26.978 35.5777 27.166 35.3591 27.4021 35.206C27.6426 35.053 27.9093 34.9765 28.2023 34.9765C28.4559 34.9765 28.6746 35.0268 28.8582 35.1273C29.0419 35.2279 29.184 35.3635 29.2846 35.534V35.0224H30.5701V38.702H29.2846V38.1904C29.184 38.3609 29.0397 38.4965 28.8517 38.5971C28.668 38.6976 28.4516 38.7479 28.2023 38.7479C27.9093 38.7479 27.6426 38.6714 27.4021 38.5183C27.166 38.3653 26.978 38.1467 26.838 37.8624C26.7025 37.5738 26.6347 37.2393 26.6347 36.8589ZM29.2846 36.8589C29.2846 36.6228 29.219 36.437 29.0878 36.3014C28.961 36.1658 28.8036 36.0981 28.6155 36.0981C28.4231 36.0981 28.2635 36.1658 28.1367 36.3014C28.0099 36.4326 27.9465 36.6184 27.9465 36.8589C27.9465 37.095 28.0099 37.2831 28.1367 37.423C28.2635 37.5585 28.4231 37.6263 28.6155 37.6263C28.8036 37.6263 28.961 37.5585 29.0878 37.423C29.219 37.2874 29.2846 37.0994 29.2846 36.8589ZM32.5882 33.8483V38.702H31.3027V33.8483H32.5882ZM36.836 36.8196C36.836 36.9201 36.8294 37.0207 36.8163 37.1213H34.3829C34.396 37.3224 34.4507 37.4733 34.5469 37.5738C34.6474 37.67 34.7743 37.7181 34.9273 37.7181C35.1416 37.7181 35.2946 37.6219 35.3864 37.4295H36.7573C36.7004 37.6832 36.5889 37.9105 36.4227 38.1117C36.261 38.3085 36.0554 38.4637 35.8062 38.5774C35.557 38.6911 35.2815 38.7479 34.9798 38.7479C34.6168 38.7479 34.2933 38.6714 34.009 38.5183C33.7292 38.3653 33.5084 38.1467 33.3466 37.8624C33.1892 37.5782 33.1104 37.2437 33.1104 36.8589C33.1104 36.4741 33.1892 36.1418 33.3466 35.8619C33.504 35.5777 33.7226 35.3591 34.0025 35.206C34.2867 35.053 34.6125 34.9765 34.9798 34.9765C35.3427 34.9765 35.6641 35.0508 35.9439 35.1995C36.2238 35.3482 36.4424 35.5624 36.5998 35.8423C36.7573 36.1177 36.836 36.4435 36.836 36.8196ZM35.5242 36.4982C35.5242 36.3408 35.4717 36.2183 35.3667 36.1309C35.2618 36.039 35.1306 35.9931 34.9732 35.9931C34.8158 35.9931 34.6868 36.0369 34.5862 36.1243C34.4857 36.2074 34.4201 36.332 34.3895 36.4982H35.5242ZM38.9297 38.7479C38.5973 38.7479 38.3 38.6933 38.0376 38.5839C37.7797 38.4702 37.5741 38.3172 37.4211 38.1248C37.2724 37.928 37.1893 37.7072 37.1719 37.4623H38.4181C38.4356 37.5804 38.4902 37.6722 38.582 37.7378C38.6739 37.8034 38.7876 37.8362 38.9231 37.8362C39.0281 37.8362 39.1111 37.8143 39.1724 37.7706C39.2336 37.7269 39.2642 37.67 39.2642 37.6001C39.2642 37.5083 39.2139 37.4405 39.1133 37.3968C39.0128 37.353 38.8466 37.3049 38.6148 37.2525C38.3525 37.2 38.1338 37.141 37.9589 37.0754C37.784 37.0098 37.631 36.9026 37.4998 36.754C37.373 36.6053 37.3096 36.4042 37.3096 36.1505C37.3096 35.9319 37.3686 35.7351 37.4867 35.5602C37.6048 35.381 37.7775 35.2388 38.0049 35.1339C38.2366 35.029 38.5143 34.9765 38.8378 34.9765C39.3188 34.9765 39.6971 35.0945 39.9726 35.3307C40.248 35.5668 40.4076 35.8773 40.4514 36.262H39.2904C39.2686 36.144 39.2161 36.0543 39.133 35.9931C39.0543 35.9275 38.9472 35.8947 38.8116 35.8947C38.7067 35.8947 38.6258 35.9144 38.5689 35.9538C38.5165 35.9931 38.4902 36.0478 38.4902 36.1177C38.4902 36.2052 38.5405 36.273 38.6411 36.3211C38.7416 36.3648 38.9034 36.4107 39.1264 36.4588C39.3932 36.5157 39.614 36.5791 39.7889 36.649C39.9682 36.719 40.1234 36.8327 40.2546 36.9901C40.3901 37.1431 40.4579 37.353 40.4579 37.6198C40.4579 37.834 40.3945 38.0264 40.2677 38.197C40.1453 38.3675 39.9682 38.503 39.7364 38.6036C39.5091 38.6998 39.2401 38.7479 38.9297 38.7479ZM43.6309 35.1077V35.8619H45.1067V36.8392H43.6309V37.6722H45.3035V38.702H42.3454V34.0779H45.3035V35.1077H43.6309ZM45.7289 36.8589C45.7289 36.4785 45.7966 36.1462 45.9322 35.8619C46.0721 35.5777 46.2623 35.3591 46.5028 35.206C46.7433 35.053 47.01 34.9765 47.303 34.9765C47.5391 34.9765 47.749 35.0268 47.9327 35.1273C48.1207 35.2235 48.2672 35.3569 48.3721 35.5274V33.8483H49.6643V38.702H48.3721V38.1904C48.2716 38.3609 48.1294 38.4965 47.9458 38.5971C47.7621 38.6976 47.5457 38.7479 47.2965 38.7479C47.0035 38.7479 46.7368 38.6714 46.4963 38.5183C46.2601 38.3653 46.0721 38.1467 45.9322 37.8624C45.7966 37.5738 45.7289 37.2393 45.7289 36.8589ZM48.3787 36.8589C48.3787 36.6228 48.3131 36.437 48.1819 36.3014C48.0551 36.1658 47.8977 36.0981 47.7097 36.0981C47.5173 36.0981 47.3577 36.1658 47.2309 36.3014C47.1041 36.4326 47.0407 36.6184 47.0407 36.8589C47.0407 37.095 47.1041 37.2831 47.2309 37.423C47.3577 37.5585 47.5173 37.6263 47.7097 37.6263C47.8977 37.6263 48.0551 37.5585 48.1819 37.423C48.3131 37.2874 48.3787 37.0994 48.3787 36.8589ZM51.0462 34.6813C50.8188 34.6813 50.6351 34.6201 50.4952 34.4977C50.3596 34.3709 50.2919 34.2134 50.2919 34.0254C50.2919 33.833 50.3596 33.6734 50.4952 33.5466C50.6351 33.4198 50.8188 33.3564 51.0462 33.3564C51.2692 33.3564 51.4484 33.4198 51.584 33.5466C51.7239 33.6734 51.7939 33.833 51.7939 34.0254C51.7939 34.2134 51.7239 34.3709 51.584 34.4977C51.4484 34.6201 51.2692 34.6813 51.0462 34.6813ZM51.6824 35.0224V38.702H50.3968V35.0224H51.6824ZM54.5855 37.6066V38.702H54.028C53.0879 38.702 52.6178 38.2363 52.6178 37.3049V36.0915H52.1652V35.0224H52.6178V34.1304H53.9099V35.0224H54.579V36.0915H53.9099V37.3246C53.9099 37.4252 53.9318 37.4973 53.9755 37.5411C54.0236 37.5848 54.1023 37.6066 54.2116 37.6066H54.5855ZM55.8245 34.6813C55.5971 34.6813 55.4135 34.6201 55.2735 34.4977C55.138 34.3709 55.0702 34.2134 55.0702 34.0254C55.0702 33.833 55.138 33.6734 55.2735 33.5466C55.4135 33.4198 55.5971 33.3564 55.8245 33.3564C56.0475 33.3564 56.2268 33.4198 56.3623 33.5466C56.5023 33.6734 56.5722 33.833 56.5722 34.0254C56.5722 34.2134 56.5023 34.3709 56.3623 34.4977C56.2268 34.6201 56.0475 34.6813 55.8245 34.6813ZM56.4607 35.0224V38.702H55.1752V35.0224H56.4607ZM58.9047 38.7479C58.5374 38.7479 58.2073 38.6714 57.9143 38.5183C57.6257 38.3653 57.3983 38.1467 57.2322 37.8624C57.066 37.5782 56.9829 37.2437 56.9829 36.8589C56.9829 36.4785 57.066 36.1462 57.2322 35.8619C57.4027 35.5777 57.6323 35.3591 57.9209 35.206C58.2138 35.053 58.544 34.9765 58.9113 34.9765C59.2786 34.9765 59.6065 35.053 59.8951 35.206C60.1881 35.3591 60.4177 35.5777 60.5838 35.8619C60.7544 36.1462 60.8396 36.4785 60.8396 36.8589C60.8396 37.2393 60.7544 37.5738 60.5838 37.8624C60.4177 38.1467 60.1881 38.3653 59.8951 38.5183C59.6022 38.6714 59.272 38.7479 58.9047 38.7479ZM58.9047 37.6329C59.084 37.6329 59.2327 37.5673 59.3507 37.4361C59.4732 37.3006 59.5344 37.1082 59.5344 36.8589C59.5344 36.6097 59.4732 36.4195 59.3507 36.2883C59.2327 36.1571 59.0862 36.0915 58.9113 36.0915C58.7364 36.0915 58.5899 36.1571 58.4718 36.2883C58.3538 36.4195 58.2947 36.6097 58.2947 36.8589C58.2947 37.1125 58.3516 37.3049 58.4653 37.4361C58.579 37.5673 58.7254 37.6329 58.9047 37.6329ZM63.7698 34.9896C64.194 34.9896 64.5307 35.1317 64.7799 35.4159C65.0291 35.6958 65.1538 36.0762 65.1538 36.5572V38.702H63.8682V36.7277C63.8682 36.5178 63.8135 36.3539 63.7042 36.2358C63.5949 36.1134 63.4484 36.0522 63.2648 36.0522C63.0724 36.0522 62.9215 36.1134 62.8122 36.2358C62.7029 36.3539 62.6482 36.5178 62.6482 36.7277V38.702H61.3627V35.0224H62.6482V35.5471C62.7619 35.381 62.915 35.2476 63.1074 35.147C63.2997 35.0421 63.5206 34.9896 63.7698 34.9896Z" fill="white"/>
<defs>
<linearGradient id="paint0_linear" x1="0" y1="11.4783" x2="88" y2="11.4783" gradientUnits="userSpaceOnUse">
<stop stop-color="#4776E6"/>
<stop offset="1" stop-color="#8E54E9"/>
</linearGradient>
<linearGradient id="paint1_linear" x1="0" y1="11.4783" x2="88" y2="11.4783" gradientUnits="userSpaceOnUse">
<stop stop-color="#4776E6"/>
<stop offset="1" stop-color="#8E54E9"/>
</linearGradient>
<linearGradient id="paint2_linear" x1="0" y1="11.4783" x2="88" y2="11.4783" gradientUnits="userSpaceOnUse">
<stop stop-color="#4776E6"/>
<stop offset="1" stop-color="#8E54E9"/>
</linearGradient>
<linearGradient id="paint3_linear" x1="0" y1="11.4783" x2="88" y2="11.4783" gradientUnits="userSpaceOnUse">
<stop stop-color="#4776E6"/>
<stop offset="1" stop-color="#8E54E9"/>
</linearGradient>
<linearGradient id="paint4_linear" x1="0" y1="11.4783" x2="88" y2="11.4783" gradientUnits="userSpaceOnUse">
<stop stop-color="#4776E6"/>
<stop offset="1" stop-color="#8E54E9"/>
</linearGradient>
<linearGradient id="paint5_linear" x1="0" y1="11.4783" x2="88" y2="11.4783" gradientUnits="userSpaceOnUse">
<stop stop-color="#4776E6"/>
<stop offset="1" stop-color="#8E54E9"/>
</linearGradient>
<linearGradient id="paint6_linear" x1="0" y1="11.4783" x2="88" y2="11.4783" gradientUnits="userSpaceOnUse">
<stop stop-color="#4776E6"/>
<stop offset="1" stop-color="#8E54E9"/>
</linearGradient>
<linearGradient id="paint7_linear" x1="0" y1="11.4783" x2="88" y2="11.4783" gradientUnits="userSpaceOnUse">
<stop stop-color="#4776E6"/>
<stop offset="1" stop-color="#8E54E9"/>
</linearGradient>
<linearGradient id="paint8_linear" x1="0" y1="11.4783" x2="88" y2="11.4783" gradientUnits="userSpaceOnUse">
<stop stop-color="#4776E6"/>
<stop offset="1" stop-color="#8E54E9"/>
</linearGradient>
<linearGradient id="paint9_linear" x1="0" y1="36.6213" x2="88" y2="36.6213" gradientUnits="userSpaceOnUse">
<stop stop-color="#24C6DC"/>
<stop offset="1" stop-color="#514A9D"/>
</linearGradient>
</defs>
</svg>
