<svg width="256" height="256" viewBox="0 0 256 256" fill="none" xmlns="http://www.w3.org/2000/svg">
<g clip-path="url(#clip0_202_62)">
<path d="M173.882 17H99.9555C96.1796 17 93 20.7956 93 25.3029C93 29.8102 96.1796 33.6058 99.9555 33.6058L127.375 46.0789L132.062 58.0526C135.143 62.9158 149.737 61.2427 155.5 61.2427H192.463C196.239 61.2427 190.985 65.4191 194.562 66.6053C194.96 68.7403 204.089 67.292 204.089 69.5456V73.6971C204.089 78.2044 207.269 82 211.045 82C214.82 82 218 78.2044 218 73.6971V69.427C217.801 40.4854 198.127 17 173.882 17Z" fill="#86CBFF"/>
<path fill-rule="evenodd" clip-rule="evenodd" d="M202.094 60.1505C208.003 61.6 213.466 64.1645 218.261 67.621C230.86 76.541 239 91.1475 239 107.761V190.717C239 217.923 216.923 240 189.717 240H65.283C38.077 240 16 217.923 16 190.717V66.283C16 39.077 38.077 17 65.283 17H91.151C109.325 17 115.012 22.9095 122.259 32.4985L137.869 53.2375L137.964 53.3621C141.335 57.8212 141.831 58.478 148.239 58.478H189.717C193.954 58.478 198.191 59.0355 202.094 60.1505ZM160.95 163.475V167.178C161.096 166.576 161.173 165.945 161.173 165.295C161.173 164.671 161.096 164.061 160.95 163.475Z" fill="#292D32"/>
<path fill-rule="evenodd" clip-rule="evenodd" d="M202.094 60.1505C208.003 61.6 213.466 64.1645 218.261 67.621C230.86 76.541 239 91.1475 239 107.761V190.717C239 217.923 216.923 240 189.717 240H65.283C38.077 240 16 217.923 16 190.717V66.283C16 39.077 38.077 17 65.283 17H91.151C109.325 17 115.012 22.9095 122.259 32.4985L137.869 53.2375L137.964 53.3621C141.335 57.8212 141.831 58.478 148.239 58.478H189.717C193.954 58.478 198.191 59.0355 202.094 60.1505ZM160.95 163.475V167.178C161.096 166.576 161.173 165.945 161.173 165.295C161.173 164.671 161.096 164.061 160.95 163.475Z" fill="url(#paint0_linear_202_62)"/>
<path fill-rule="evenodd" clip-rule="evenodd" d="M202.094 60.1505C208.003 61.6 213.466 64.1645 218.261 67.621C230.86 76.541 239 91.1475 239 107.761V190.717C239 217.923 216.923 240 189.717 240H65.283C38.077 240 16 217.923 16 190.717V66.283C16 39.077 38.077 17 65.283 17H91.151C109.325 17 115.012 22.9095 122.259 32.4985L137.869 53.2375L137.964 53.3621C141.335 57.8212 141.831 58.478 148.239 58.478H189.717C193.954 58.478 198.191 59.0355 202.094 60.1505ZM160.95 163.475V167.178C161.096 166.576 161.173 165.945 161.173 165.295C161.173 164.671 161.096 164.061 160.95 163.475Z" fill="url(#paint1_radial_202_62)" fill-opacity="0.2"/>
<path fill-rule="evenodd" clip-rule="evenodd" d="M202.094 60.1505C208.003 61.6 213.466 64.1645 218.261 67.621C230.86 76.541 239 91.1475 239 107.761V190.717C239 217.923 216.923 240 189.717 240H65.283C38.077 240 16 217.923 16 190.717V66.283C16 39.077 38.077 17 65.283 17H91.151C109.325 17 115.012 22.9095 122.259 32.4985L137.869 53.2375L137.964 53.3621C141.335 57.8212 141.831 58.478 148.239 58.478H189.717C193.954 58.478 198.191 59.0355 202.094 60.1505ZM160.95 163.475V167.178C161.096 166.576 161.173 165.945 161.173 165.295C161.173 164.671 161.096 164.061 160.95 163.475Z" fill="url(#paint2_radial_202_62)" fill-opacity="0.2"/>
<path d="M133.675 115.59C133.545 108.124 133.286 100.657 133.157 93.191C133.157 92.1786 133.416 91.2928 133.416 90.2804C133.545 86.7371 134.323 83.0672 131.084 79.6504C130.436 79.5239 129.27 79.0177 128.233 79.0177C124.994 78.8911 121.755 78.7646 118.516 78.7646C116.313 78.638 114.499 79.6504 113.074 81.0424C109.187 84.5858 105.559 88.2556 102.579 92.4317C102.19 92.9379 101.802 93.3175 101.283 93.8237C101.024 93.444 100.895 93.444 100.765 93.191C98.5625 88.8884 94.9347 85.5981 91.8251 81.8017C90.5294 80.1566 88.845 79.2708 86.5129 79.5239C86.2537 79.6504 85.865 79.5239 85.4763 79.5239C82.3667 79.5239 79.2571 79.3973 76.018 79.3973C73.9449 79.3973 72.5197 80.5362 71.8719 82.3079C71.224 83.6999 70.7058 85.0919 70.5762 86.6105C70.0579 90.0273 69.7988 93.5706 69.5397 97.1139C69.151 103.062 68.8918 109.009 68.6327 114.831C68.244 121.284 67.4666 127.738 67.4666 134.192C67.4666 147.733 67.337 161.273 68.3736 174.687C68.6327 178.104 70.4466 180.508 73.5562 181.774C75.6293 182.533 77.8319 183.039 80.0345 183.292C82.885 183.799 85.6059 182.66 88.3268 181.647C89.3633 181.268 90.0111 180.508 90.2703 179.496C90.3998 178.61 90.5294 177.724 90.5294 176.839C90.9181 170.511 91.1772 164.057 91.4364 157.73C91.5659 153.048 91.9546 148.366 91.9546 143.683C92.0842 135.331 91.9546 126.852 91.8251 118.5C91.8251 116.982 91.8251 115.337 91.6955 113.818C91.9546 113.692 92.0842 113.692 92.2138 113.692C92.9912 114.957 93.7686 116.223 94.6755 117.488C95.4529 118.88 96.3599 120.272 97.3964 121.538C99.3399 123.942 102.061 123.815 104.004 121.411C105.818 119.133 107.632 116.855 109.576 114.577C109.835 114.198 110.094 114.071 110.612 113.565C110.353 115.969 110.094 117.994 109.964 120.019C109.705 127.612 109.317 135.205 109.446 142.797C109.446 151.15 109.835 159.502 109.576 167.727C109.446 175.32 109.705 182.786 109.964 190.379C109.964 191.392 110.094 192.53 110.353 193.543C111.26 196.074 113.851 197.845 116.572 198.352C118.775 198.858 121.755 199.111 123.958 198.352C125.642 197.845 127.974 197.213 129.27 196.074C131.084 194.555 131.213 191.898 131.731 189.746C132.509 186.709 132.509 183.419 132.638 180.255C132.898 173.801 132.638 167.348 133.027 160.894C133.286 154.06 133.934 147.227 134.064 140.393C134.064 132.167 133.805 123.942 133.675 115.59Z" fill="white"/>
<path d="M185.623 95.0892C184.845 94.4564 184.068 93.9502 183.291 93.3175C181.218 91.6724 178.756 90.66 176.164 90.2804C168.779 89.268 161.523 89.0149 154.138 89.1415C151.936 89.1415 149.733 89.5211 147.789 90.5335C146.882 90.9131 146.105 91.5458 145.716 92.4317C145.198 93.444 144.809 94.4564 144.55 95.4688C144.162 97.6201 143.773 99.898 143.643 102.049C143.255 105.593 143.255 109.009 142.995 112.553C142.995 114.071 142.866 115.463 142.736 116.982C141.959 124.195 141.052 131.408 141.052 138.621C141.052 149.251 140.534 160.008 141.441 170.764C141.57 172.283 141.829 173.801 142.088 175.32C142.348 177.092 143.514 178.104 145.328 178.737C148.956 180.129 152.583 179.749 156.082 178.863C158.025 178.357 159.191 177.218 159.45 175.193C159.71 172.916 159.969 170.638 160.098 168.36C160.228 164.437 160.098 160.514 160.098 156.718C160.098 155.326 160.228 153.934 160.228 152.542C160.357 149.884 160.487 147.1 160.616 144.443C160.616 144.063 160.746 143.683 160.746 143.177C161.394 143.051 161.912 143.051 162.43 142.924C164.374 142.924 166.447 142.924 168.39 142.797C171.241 142.671 174.091 142.418 176.812 142.038C181.477 141.279 184.845 137.356 185.493 132.8C185.752 130.396 186.271 127.991 186.53 125.46C186.918 121.538 187.307 117.488 187.437 113.565C187.696 108.756 187.437 104.074 186.918 99.2652C186.789 97.7467 186.53 96.3546 185.623 95.0892ZM173.184 113.059C172.925 115.716 172.796 118.5 172.407 121.158C172.018 124.068 170.723 125.46 167.743 125.84C166.058 126.093 164.374 126.22 162.69 126.093C160.616 125.967 159.58 124.701 159.839 122.676C159.969 120.525 159.969 118.5 160.228 116.349C160.357 114.451 160.487 112.553 160.746 110.654C160.746 109.642 160.876 108.63 161.005 107.617C161.135 106.225 161.912 105.339 163.208 105.466C165.67 105.593 168.261 105.719 170.852 106.225C172.666 106.478 173.055 107.238 173.055 109.009C173.055 110.275 173.055 111.667 173.055 113.059H173.184Z" fill="white"/>
</g>
<defs>
<linearGradient id="paint0_linear_202_62" x1="125.785" y1="61.6" x2="393.385" y2="327.485" gradientUnits="userSpaceOnUse">
<stop stop-color="#169AFF"/>
<stop offset="1" stop-color="#3B43FF"/>
</linearGradient>
<radialGradient id="paint1_radial_202_62" cx="0" cy="0" r="1" gradientUnits="userSpaceOnUse" gradientTransform="translate(224.133 98.7667) rotate(124.38) scale(171.128)">
<stop stop-color="white"/>
<stop offset="1" stop-color="white" stop-opacity="0"/>
</radialGradient>
<radialGradient id="paint2_radial_202_62" cx="0" cy="0" r="1" gradientUnits="userSpaceOnUse" gradientTransform="translate(203.5 190) rotate(105.969) scale(169.022)">
<stop stop-color="white"/>
<stop offset="1" stop-color="white" stop-opacity="0"/>
</radialGradient>
<clipPath id="clip0_202_62">
<rect width="256" height="256" fill="white"/>
</clipPath>
</defs>
</svg>
