<svg width="24" height="24" viewBox="0 0 24 24" fill="none" xmlns="http://www.w3.org/2000/svg">
<path d="M21.38 5.95663L14.66 1.25497C12.8283 -0.0283654 10.0167 0.0416348 8.25499 1.40663L2.40999 5.9683C1.24332 6.8783 0.321655 8.74497 0.321655 10.215V18.265C0.321655 21.24 2.73666 23.6666 5.71166 23.6666H18.2883C21.2633 23.6666 23.6783 21.2516 23.6783 18.2766V10.3666C23.6783 8.79164 22.6633 6.85497 21.38 5.95663ZM12.875 19C12.875 19.4783 12.4783 19.875 12 19.875C11.5217 19.875 11.125 19.4783 11.125 19V15.5C11.125 15.0216 11.5217 14.625 12 14.625C12.4783 14.625 12.875 15.0216 12.875 15.5V19Z" fill="#7A6EF0"/>
</svg>
