<!-- Generated by IcoMoon.io -->
<svg version="1.1" xmlns="http://www.w3.org/2000/svg" width="100" height="100" viewBox="-29 -80 1696 976">
<path  d="M204.8 316.8l-60.8-131.2c-3.2-6.4 0-12.8 3.2-19.2 3.2-3.2 6.4-3.2 12.8-3.2 3.2 0 3.2 0 6.4 0l217.6 99.2c25.6-3.2 48-3.2 70.4-3.2 249.6 0 451.2 156.8 451.2 348.8s-201.6 348.8-451.2 348.8-457.6-153.6-457.6-345.6c0-118.4 76.8-227.2 208-294.4zM451.2 928c230.4 0 419.2-140.8 419.2-316.8s-188.8-316.8-419.2-316.8c-22.4 0-44.8 0-70.4 6.4-3.2 0-6.4 0-9.6 0l-182.4-83.2 51.2 102.4c3.2 3.2 3.2 9.6 0 12.8s-3.2 6.4-9.6 9.6c-124.8 57.6-201.6 160-201.6 272 0 172.8 188.8 313.6 422.4 313.6zM230.4 534.4c6.4 0 9.6-3.2 16-3.2 19.2 0 38.4 9.6 51.2 25.6s16 35.2 12.8 54.4c-6.4 22.4-22.4 41.6-48 48s-51.2-3.2-67.2-22.4c-12.8-16-16-35.2-12.8-54.4 6.4-25.6 25.6-44.8 48-48zM220.8 614.4c6.4 6.4 16 12.8 25.6 12.8 3.2 0 6.4 0 9.6 0 9.6-3.2 19.2-12.8 22.4-22.4s0-19.2-6.4-28.8c-6.4-9.6-19.2-12.8-32-12.8-9.6 3.2-19.2 12.8-22.4 22.4-6.4 12.8-3.2 22.4 3.2 28.8zM419.2 534.4c6.4 0 9.6-3.2 16-3.2 19.2 0 38.4 9.6 51.2 25.6s16 35.2 12.8 54.4c-6.4 22.4-22.4 41.6-48 48s-51.2-3.2-67.2-22.4c-12.8-16-16-35.2-12.8-54.4 6.4-25.6 25.6-44.8 48-48zM409.6 614.4c6.4 6.4 16 12.8 25.6 12.8 3.2 0 6.4 0 9.6 0 9.6-3.2 19.2-12.8 22.4-22.4s0-19.2-6.4-28.8c-6.4-9.6-19.2-12.8-32-12.8-9.6 3.2-19.2 12.8-22.4 22.4-6.4 12.8-3.2 22.4 3.2 28.8zM608 534.4c6.4 0 9.6-3.2 16-3.2 19.2 0 38.4 9.6 51.2 25.6s16 35.2 12.8 54.4c-6.4 22.4-22.4 41.6-48 48s-51.2-3.2-67.2-22.4c-12.8-16-16-35.2-12.8-54.4 6.4-25.6 25.6-44.8 48-48zM598.4 614.4c6.4 6.4 16 12.8 25.6 12.8 3.2 0 6.4 0 9.6 0 9.6-3.2 19.2-12.8 22.4-22.4s0-19.2-6.4-28.8c-6.4-9.6-19.2-12.8-32-12.8-9.6 3.2-19.2 12.8-22.4 22.4-6.4 12.8-3.2 22.4 3.2 28.8zM956.8 569.6c-9.6 3.2-16-3.2-19.2-9.6-3.2-9.6 3.2-16 9.6-19.2 121.6-35.2 204.8-128 204.8-227.2 0-86.4-60.8-166.4-160-211.2-6.4-3.2-9.6-9.6-9.6-19.2l19.2-92.8-102.4 76.8c-3.2 3.2-6.4 3.2-12.8 3.2-22.4-3.2-41.6-3.2-60.8-3.2-118.4 0-230.4 60.8-275.2 144-3.2 6.4-12.8 9.6-22.4 6.4-6.4-3.2-9.6-12.8-6.4-22.4 51.2-96 176-163.2 304-163.2 19.2 0 38.4 0 60.8 3.2l131.2-99.2c3.2 0 6.4 0 9.6 0s6.4 0 9.6 3.2 9.6 9.6 6.4 16l-25.6 121.6c102.4 51.2 166.4 140.8 166.4 233.6 3.2 115.2-89.6 217.6-227.2 259.2z"></path>
</svg>
