<svg width="100" height="100" viewBox="0 0 100 100"  xmlns="http://www.w3.org/2000/svg">
<path fill-rule="evenodd" clip-rule="evenodd" fill="white" d="M8 0C3.58173 0 0 3.58172 0 8V92C0 96.4183 3.58173 100 8 100H92C96.4183 100 100 96.4183 100 92V8C100 3.58172 96.4183 0 92 0H8ZM51.9636 31.3045C52.0166 33.3875 52.0695 35.4705 52.1049 37.5535C52.1288 39.1279 52.1607 40.6942 52.1925 42.2552C52.2549 45.3149 52.3168 48.354 52.3168 51.3931C52.2765 53.572 52.1438 55.7508 52.0112 57.9296C51.9117 59.5638 51.8122 61.1979 51.7516 62.832C51.6339 64.8326 51.6252 66.8332 51.6165 68.8339V68.8365C51.6095 70.4361 51.6025 72.0357 51.5397 73.6353C51.5294 73.8923 51.5206 74.1508 51.5118 74.4102C51.4601 75.9322 51.4073 77.4832 51.0451 78.9311C50.9877 79.1751 50.9391 79.4307 50.8896 79.6904L50.8896 79.6909L50.8894 79.6916C50.6957 80.7089 50.4905 81.7868 49.7028 82.4616C49.0494 83.0494 47.9126 83.3955 47.0189 83.6676L47.0003 83.6733L46.9839 83.6783C46.9234 83.6967 46.8641 83.7148 46.8062 83.7326C45.6051 84.1563 43.9802 84.0151 42.7791 83.7326C41.2955 83.4502 39.8825 82.4616 39.3879 81.0494C39.2466 80.4845 39.176 79.8491 39.176 79.2842L39.1714 79.146C39.0316 74.957 38.8941 70.8355 38.964 66.6449C39.0522 63.7806 39.0028 60.8887 38.9532 57.9865V57.985C38.9233 56.2374 38.8934 54.4861 38.8934 52.7347C38.8369 49.3454 38.9612 45.9561 39.0855 42.5669C39.1166 41.7195 39.1477 40.8722 39.176 40.0249C39.2292 39.1743 39.3224 38.3237 39.4255 37.3828C39.4594 37.0739 39.4943 36.7553 39.5292 36.4238C39.4213 36.5316 39.334 36.6086 39.2594 36.6744C39.1387 36.7807 39.0514 36.8577 38.964 36.9887C37.9046 38.2592 36.9159 39.5297 35.9271 40.8003L35.9261 40.8016C34.8663 42.1432 33.3827 42.2138 32.3229 40.8722C31.7578 40.1661 31.2632 39.3894 30.8393 38.6127C30.3448 37.9066 29.9208 37.2005 29.4969 36.4944C29.4263 36.4944 29.3557 36.4944 29.2144 36.565C29.285 37.4123 29.285 38.3302 29.285 39.1776C29.3557 43.8378 29.4263 48.5687 29.3557 53.229C29.3557 54.7966 29.2794 56.3641 29.2031 57.9316C29.1522 58.9767 29.1013 60.0217 29.0731 61.0667L29.0572 61.4632C28.9211 64.8665 28.7825 68.3304 28.5785 71.7289C28.5785 72.2231 28.5078 72.7174 28.4372 73.2117C28.2959 73.7766 27.9427 74.2002 27.3774 74.4121C27.2743 74.4513 27.1711 74.491 27.068 74.5306C25.6872 75.0609 24.3021 75.5928 22.8559 75.33C21.6548 75.1888 20.4538 74.9063 19.3234 74.4827C17.6278 73.7766 16.6387 72.435 16.4974 70.5285C15.9887 63.7924 15.9951 56.999 16.0014 50.2L16.0023 49.1443C16.0027 48.7406 16.0028 48.3369 16.0028 47.9332C16.0028 45.5325 16.1912 43.1317 16.3796 40.731C16.4738 39.5306 16.568 38.3302 16.6387 37.1299L16.6563 36.7239L16.6564 36.7217C16.7919 33.6041 16.9301 30.4243 17.1332 27.2444L17.1333 27.2432C17.2746 25.2665 17.4159 23.2899 17.6984 21.3838C17.7691 20.5365 18.0517 19.7598 18.4049 18.983C18.7582 17.9945 19.5353 17.359 20.6657 17.359C21.5578 17.359 22.4319 17.377 23.2971 17.3949C24.1449 17.4123 24.984 17.4296 25.8232 17.4296C25.8966 17.4296 25.9701 17.4381 26.0406 17.4463C26.1736 17.4616 26.296 17.4757 26.3883 17.4296C27.66 17.2884 28.5785 17.7827 29.285 18.7006C29.7834 19.3232 30.3062 19.9214 30.8264 20.5168L30.8273 20.5178C32.0769 21.9476 33.312 23.3608 34.1598 25.0555C34.1776 25.0911 34.1955 25.1178 34.2144 25.1411C34.233 25.164 34.2527 25.1837 34.2746 25.2056C34.3188 25.2497 34.3718 25.3027 34.4424 25.4086C34.725 25.1261 34.937 24.9143 35.1489 24.6319C36.7739 22.3017 38.7521 20.254 40.8716 18.2769C41.6487 17.5002 42.6378 16.9353 43.8389 17.006C45.6051 17.006 47.3713 17.0766 49.1376 17.1472C49.5209 17.1472 49.9367 17.2771 50.2748 17.3827C50.4353 17.4329 50.5782 17.4775 50.6919 17.5002C52.2145 19.1438 52.1095 20.8923 52.0063 22.61L52.0062 22.6121L52.0061 22.6142C51.9897 22.8876 51.9733 23.1602 51.9636 23.4315C51.9636 23.7139 51.9283 23.9787 51.8929 24.2435C51.8576 24.5083 51.8223 24.7731 51.8223 25.0555C51.8576 27.1385 51.9106 29.2215 51.9636 31.3045ZM83.1424 21.286C83.2584 21.3662 83.3732 21.4456 83.4845 21.525C84.0497 22.3017 84.3322 23.2197 84.4029 24.2082L84.4196 24.3553C84.7672 27.411 85.1072 30.4003 84.9681 33.4581C84.9681 36.0707 84.7562 38.6833 84.5442 41.2253C84.4735 42.0373 84.3853 42.8316 84.2969 43.626C84.2086 44.4204 84.1203 45.2147 84.0497 46.0268C83.7671 48.9924 81.6476 51.5344 78.7509 52.0992C77.4489 52.3595 76.1085 52.5046 74.7863 52.6478C74.3149 52.6989 73.8458 52.7497 73.3815 52.8053C72.9712 52.8295 72.5526 52.8454 72.1286 52.8614C71.3115 52.8924 70.4743 52.9242 69.6371 53.0172C69.2838 53.0172 68.9306 53.0878 68.5773 53.1584C68.5067 53.4408 68.436 53.7233 68.436 54.0057V59.2309C68.436 59.6459 68.4191 60.0778 68.4018 60.5183V60.5187V60.519C68.3838 60.9778 68.3654 61.4459 68.3654 61.9141C68.3813 62.6628 68.4548 63.5049 68.5322 64.3927L68.5323 64.3933C68.7982 67.4404 69.111 71.0246 67.3056 73.2117C66.3872 74.2708 65.0448 74.9063 63.7025 75.1182C62.5861 75.2943 61.4209 75.2263 60.2475 75.1578H60.2472C60.0097 75.1439 59.7719 75.1301 59.5341 75.1182C58.8277 75.0476 58.1212 74.9769 57.4853 74.6239C56.0723 73.7766 55.931 71.7995 55.931 70.1754C55.931 67.7092 55.9609 65.2429 55.9908 62.7804C56.0404 58.6861 56.0899 54.6022 56.0017 50.5458C55.931 45.8149 56.2843 41.1547 56.7082 36.4944C56.7428 36.0098 56.7604 35.5252 56.7778 35.0489L56.7779 35.0464C56.7958 34.552 56.8135 34.0665 56.8495 33.5994V30.0688H55.931C55.5071 29.9982 55.0832 29.9276 54.73 29.7158C54.4474 29.504 54.3061 29.1509 54.2354 28.7979C53.7956 27.6048 53.8028 26.3 53.8098 25.0326V25.0309C53.8105 24.9102 53.8112 24.7898 53.8114 24.6698L53.8115 24.5612C53.8115 24.2347 53.8302 23.9081 53.8483 23.5911L53.8484 23.5896C53.8655 23.2903 53.8822 22.9995 53.8822 22.7254C53.8822 21.4544 54.0235 20.0422 54.9419 19.1949C55.7082 18.4986 56.8866 18.4203 57.9354 18.3505L57.9799 18.3475L64.3383 18.1357H64.9742C69.1425 18.0651 73.2402 18.0651 77.4086 18.5594C79.0335 18.7712 80.5878 19.3361 82.0008 20.3952C82.3293 20.7236 82.7428 21.0096 83.1424 21.286ZM72.675 41.7901C74.5826 41.5077 75.1478 40.5192 75.4304 38.7539C75.713 36.9887 75.713 35.1528 75.713 33.3875V33.2463C75.69 33.0396 75.6745 32.833 75.6592 32.6287C75.6274 32.205 75.5964 31.7916 75.501 31.4104C74.8652 29.504 73.1696 29.4334 71.474 29.504C70.2729 29.504 68.7893 29.6452 68.1534 30.6337C67.8575 31.107 67.8095 31.6795 67.7602 32.268C67.7506 32.3818 67.741 32.4963 67.7296 32.6108C67.7013 33.5711 67.6956 34.5314 67.69 35.4917C67.6815 36.9322 67.673 38.3726 67.5883 39.8131C67.5176 41.1547 68.1534 42.002 69.4958 42.0726C70.5555 42.0726 71.6859 42.002 72.675 41.7901Z" />
</svg>
